<?xml version="1.0" encoding="utf-8"?>
<svg version="1.1" xmlns:xlink="http://www.w3.org/1999/xlink" width="370px" height="201px" xmlns="http://www.w3.org/2000/svg">
  <defs>
    <filter x="244px" y="121px" width="370px" height="201px" filterUnits="userSpaceOnUse" id="filter187">
      <feOffset dx="5" dy="5" in="SourceAlpha" result="shadowOffsetInner" />
      <feGaussianBlur stdDeviation="2.5" in="shadowOffsetInner" result="shadowGaussian" />
      <feComposite in2="shadowGaussian" operator="atop" in="SourceAlpha" result="shadowComposite" />
      <feColorMatrix type="matrix" values="0 0 0 0 0.250980392156863  0 0 0 0 0.619607843137255  0 0 0 0 1  0 0 0 0.0980392156862745 0  " in="shadowComposite" />
    </filter>
    <g id="widget188">
      <path d="M 246 126  A 3 3 0 0 1 249 123 L 599 123  A 3 3 0 0 1 602 126 L 602 307  A 3 3 0 0 1 599 310 L 249 310  A 3 3 0 0 1 246 307 L 246 126  Z " fill-rule="nonzero" fill="#ffffff" stroke="none" fill-opacity="0.149019607843137" />
      <path d="M 245 126  A 4 4 0 0 1 249 122 L 599 122  A 4 4 0 0 1 603 126 L 603 307  A 4 4 0 0 1 599 311 L 249 311  A 4 4 0 0 1 245 307 L 245 126  Z " stroke-width="2" stroke="#02a7f0" fill="none" stroke-opacity="0.149019607843137" />
    </g>
  </defs>
  <g transform="matrix(1 0 0 1 -244 -121 )">
    <use xlink:href="#widget188" filter="url(#filter187)" />
    <use xlink:href="#widget188" />
  </g>
</svg>