<?xml version="1.0" encoding="utf-8"?>
<svg version="1.1" xmlns:xlink="http://www.w3.org/1999/xlink" width="489px" height="140px" xmlns="http://www.w3.org/2000/svg">
  <defs>
    <filter x="533px" y="774px" width="489px" height="140px" filterUnits="userSpaceOnUse" id="filter358">
      <feOffset dx="5" dy="5" in="SourceAlpha" result="shadowOffsetInner" />
      <feGaussianBlur stdDeviation="2.5" in="shadowOffsetInner" result="shadowGaussian" />
      <feComposite in2="shadowGaussian" operator="atop" in="SourceAlpha" result="shadowComposite" />
      <feColorMatrix type="matrix" values="0 0 0 0 0.250980392156863  0 0 0 0 0.619607843137255  0 0 0 0 1  0 0 0 0.0980392156862745 0  " in="shadowComposite" />
    </filter>
    <g id="widget359">
      <path d="M 535 779  A 3 3 0 0 1 538 776 L 1007 776  A 3 3 0 0 1 1010 779 L 1010 899  A 3 3 0 0 1 1007 902 L 538 902  A 3 3 0 0 1 535 899 L 535 779  Z " fill-rule="nonzero" fill="#ffffff" stroke="none" fill-opacity="0.149019607843137" />
      <path d="M 534 779  A 4 4 0 0 1 538 775 L 1007 775  A 4 4 0 0 1 1011 779 L 1011 899  A 4 4 0 0 1 1007 903 L 538 903  A 4 4 0 0 1 534 899 L 534 779  Z " stroke-width="2" stroke="#02a7f0" fill="none" stroke-opacity="0.149019607843137" />
    </g>
  </defs>
  <g transform="matrix(1 0 0 1 -533 -774 )">
    <use xlink:href="#widget359" filter="url(#filter358)" />
    <use xlink:href="#widget359" />
  </g>
</svg>