<?xml version="1.0" encoding="utf-8"?>
<svg version="1.1" xmlns:xlink="http://www.w3.org/1999/xlink" width="450px" height="30px" viewBox="1755 556  450 30" xmlns="http://www.w3.org/2000/svg">
  <path d="M 1756 558  A 1 1 0 0 1 1757 557 L 2203 557  A 1 1 0 0 1 2204 558 L 2204 584  A 1 1 0 0 1 2203 585 L 1757 585  A 1 1 0 0 1 1756 584 L 1756 558  Z " fill-rule="nonzero" fill="#f0f0f0" stroke="none" />
  <path d="M 1755.5 558  A 1.5 1.5 0 0 1 1757 556.5 L 2203 556.5  A 1.5 1.5 0 0 1 2204.5 558 L 2204.5 584  A 1.5 1.5 0 0 1 2203 585.5 L 1757 585.5  A 1.5 1.5 0 0 1 1755.5 584 L 1755.5 558  Z " stroke-width="1" stroke="#000000" fill="none" stroke-opacity="0.0862745098039216" />
</svg>