<?xml version="1.0" encoding="utf-8"?>
<svg version="1.1" xmlns:xlink="http://www.w3.org/1999/xlink" width="450px" height="156px" viewBox="1755 684  450 156" xmlns="http://www.w3.org/2000/svg">
  <defs>
    <linearGradient gradientUnits="userSpaceOnUse" x1="1980" y1="684" x2="1980" y2="840" id="LinearGradient396">
      <stop id="Stop397" stop-color="#ffffff" offset="0" />
      <stop id="Stop398" stop-color="#f2f2f2" offset="0" />
      <stop id="Stop399" stop-color="#e4e4e4" offset="1" />
      <stop id="Stop400" stop-color="#ffffff" offset="1" />
    </linearGradient>
  </defs>
  <path d="M 1755.5 685  A 0.5 0.5 0 0 1 1756 684.5 L 2204 684.5  A 0.5 0.5 0 0 1 2204.5 685 L 2204.5 839  A 0.5 0.5 0 0 1 2204 839.5 L 1756 839.5  A 0.5 0.5 0 0 1 1755.5 839 L 1755.5 685  Z " fill-rule="nonzero" fill="#ffffff" stroke="none" />
  <path d="M 1755.5 685  A 0.5 0.5 0 0 1 1756 684.5 L 2204 684.5  A 0.5 0.5 0 0 1 2204.5 685 L 2204.5 839  A 0.5 0.5 0 0 1 2204 839.5 L 1756 839.5  A 0.5 0.5 0 0 1 1755.5 839 L 1755.5 685  Z " stroke-width="1" stroke="url(#LinearGradient396)" fill="none" />
</svg>