<?xml version="1.0" encoding="utf-8"?>
<svg version="1.1" xmlns:xlink="http://www.w3.org/1999/xlink" width="250px" height="30px" viewBox="1955 375  250 30" xmlns="http://www.w3.org/2000/svg">
  <path d="M 1956 377  A 1 1 0 0 1 1957 376 L 2203 376  A 1 1 0 0 1 2204 377 L 2204 403  A 1 1 0 0 1 2203 404 L 1957 404  A 1 1 0 0 1 1956 403 L 1956 377  Z " fill-rule="nonzero" fill="#ffffff" stroke="none" />
  <path d="M 1955.5 377  A 1.5 1.5 0 0 1 1957 375.5 L 2203 375.5  A 1.5 1.5 0 0 1 2204.5 377 L 2204.5 403  A 1.5 1.5 0 0 1 2203 404.5 L 1957 404.5  A 1.5 1.5 0 0 1 1955.5 403 L 1955.5 377  Z " stroke-width="1" stroke="#000000" fill="none" stroke-opacity="0.0862745098039216" />
</svg>