<?xml version="1.0" encoding="utf-8"?>
<svg version="1.1" xmlns:xlink="http://www.w3.org/1999/xlink" width="190px" height="30px" viewBox="1755 375  190 30" xmlns="http://www.w3.org/2000/svg">
  <path d="M 1756 377  A 1 1 0 0 1 1757 376 L 1943 376  A 1 1 0 0 1 1944 377 L 1944 403  A 1 1 0 0 1 1943 404 L 1757 404  A 1 1 0 0 1 1756 403 L 1756 377  Z " fill-rule="nonzero" fill="#f0f0f0" stroke="none" />
  <path d="M 1755.5 377  A 1.5 1.5 0 0 1 1757 375.5 L 1943 375.5  A 1.5 1.5 0 0 1 1944.5 377 L 1944.5 403  A 1.5 1.5 0 0 1 1943 404.5 L 1757 404.5  A 1.5 1.5 0 0 1 1755.5 403 L 1755.5 377  Z " stroke-width="1" stroke="#000000" fill="none" stroke-opacity="0.0862745098039216" />
</svg>