<?xml version="1.0" encoding="utf-8"?>
<svg version="1.1" xmlns:xlink="http://www.w3.org/1999/xlink" width="16px" height="16px" viewBox="255 989  16 16" xmlns="http://www.w3.org/2000/svg">
  <path d="M 263 989  C 267.48 989  271 992.52  271 997  C 271 1001.48  267.48 1005  263 1005  C 258.52 1005  255 1001.48  255 997  C 255 992.52  258.52 989  263 989  Z " fill-rule="nonzero" fill="#ffffff" stroke="none" />
  <path d="M 263 989.5  C 267.2 989.5  270.5 992.8  270.5 997  C 270.5 1001.2  267.2 1004.5  263 1004.5  C 258.8 1004.5  255.5 1001.2  255.5 997  C 255.5 992.8  258.8 989.5  263 989.5  Z " stroke-width="1" stroke="#797979" fill="none" />
  <path d="M 263 1001  C 260.76 1001  259 999.24  259 997  C 259 994.76  260.76 993  263 993  C 265.24 993  267 994.76  267 997  C 267 999.24  265.24 1001  263 1001  " fill-rule="nonzero" fill="#797979" stroke="none" />
</svg>