<?xml version="1.0" encoding="utf-8"?>
<svg version="1.1" xmlns:xlink="http://www.w3.org/1999/xlink" width="16px" height="16px" viewBox="133 989  16 16" xmlns="http://www.w3.org/2000/svg">
  <path d="M 141 989  C 145.48 989  149 992.52  149 997  C 149 1001.48  145.48 1005  141 1005  C 136.52 1005  133 1001.48  133 997  C 133 992.52  136.52 989  141 989  Z " fill-rule="nonzero" fill="#f0f0f0" stroke="none" />
  <path d="M 141 989.5  C 145.2 989.5  148.5 992.8  148.5 997  C 148.5 1001.2  145.2 1004.5  141 1004.5  C 136.8 1004.5  133.5 1001.2  133.5 997  C 133.5 992.8  136.8 989.5  141 989.5  Z " stroke-width="1" stroke="#797979" fill="none" />
  <path d="M 141 1001  C 138.76 1001  137 999.24  137 997  C 137 994.76  138.76 993  141 993  C 143.24 993  145 994.76  145 997  C 145 999.24  143.24 1001  141 1001  " fill-rule="nonzero" fill="#797979" stroke="none" />
</svg>