<?xml version="1.0" encoding="utf-8"?>
<svg version="1.1" xmlns:xlink="http://www.w3.org/1999/xlink" width="16px" height="16px" viewBox="375 989  16 16" xmlns="http://www.w3.org/2000/svg">
  <path d="M 383 989  C 387.48 989  391 992.52  391 997  C 391 1001.48  387.48 1005  383 1005  C 378.52 1005  375 1001.48  375 997  C 375 992.52  378.52 989  383 989  Z " fill-rule="nonzero" fill="#ffffff" stroke="none" />
  <path d="M 383 989.5  C 387.2 989.5  390.5 992.8  390.5 997  C 390.5 1001.2  387.2 1004.5  383 1004.5  C 378.8 1004.5  375.5 1001.2  375.5 997  C 375.5 992.8  378.8 989.5  383 989.5  Z " stroke-width="1" stroke="#797979" fill="none" />
  <path d="M 383 1001  C 380.76 1001  379 999.24  379 997  C 379 994.76  380.76 993  383 993  C 385.24 993  387 994.76  387 997  C 387 999.24  385.24 1001  383 1001  " fill-rule="nonzero" fill="#797979" stroke="none" />
</svg>