<?xml version="1.0" encoding="utf-8"?>
<svg version="1.1" xmlns:xlink="http://www.w3.org/1999/xlink" width="16px" height="16px" viewBox="512 989  16 16" xmlns="http://www.w3.org/2000/svg">
  <path d="M 520 989  C 524.48 989  528 992.52  528 997  C 528 1001.48  524.48 1005  520 1005  C 515.52 1005  512 1001.48  512 997  C 512 992.52  515.52 989  520 989  Z " fill-rule="nonzero" fill="#f0f0f0" stroke="none" />
  <path d="M 520 989.5  C 524.2 989.5  527.5 992.8  527.5 997  C 527.5 1001.2  524.2 1004.5  520 1004.5  C 515.8 1004.5  512.5 1001.2  512.5 997  C 512.5 992.8  515.8 989.5  520 989.5  Z " stroke-width="1" stroke="#797979" fill="none" />
  <path d="M 520 1001  C 517.76 1001  516 999.24  516 997  C 516 994.76  517.76 993  520 993  C 522.24 993  524 994.76  524 997  C 524 999.24  522.24 1001  520 1001  " fill-rule="nonzero" fill="#797979" stroke="none" />
</svg>