<?xml version="1.0" encoding="utf-8"?>
<svg version="1.1" xmlns:xlink="http://www.w3.org/1999/xlink" width="16px" height="16px" viewBox="126 1068  16 16" xmlns="http://www.w3.org/2000/svg">
  <path d="M 134 1068  C 138.48 1068  142 1071.52  142 1076  C 142 1080.48  138.48 1084  134 1084  C 129.52 1084  126 1080.48  126 1076  C 126 1071.52  129.52 1068  134 1068  Z " fill-rule="nonzero" fill="#f0f0f0" stroke="none" />
  <path d="M 134 1068.5  C 138.2 1068.5  141.5 1071.8  141.5 1076  C 141.5 1080.2  138.2 1083.5  134 1083.5  C 129.8 1083.5  126.5 1080.2  126.5 1076  C 126.5 1071.8  129.8 1068.5  134 1068.5  Z " stroke-width="1" stroke="#797979" fill="none" />
  <path d="M 134 1080  C 131.76 1080  130 1078.24  130 1076  C 130 1073.76  131.76 1072  134 1072  C 136.24 1072  138 1073.76  138 1076  C 138 1078.24  136.24 1080  134 1080  " fill-rule="nonzero" fill="#797979" stroke="none" />
</svg>