<?xml version="1.0" encoding="utf-8"?>
<svg version="1.1" xmlns:xlink="http://www.w3.org/1999/xlink" width="12px" height="12px" viewBox="1500 385  12 12" xmlns="http://www.w3.org/2000/svg">
  <path d="M 1506 385  C 1509.36 385  1512 387.64  1512 391  C 1512 394.36  1509.36 397  1506 397  C 1502.64 397  1500 394.36  1500 391  C 1500 387.64  1502.64 385  1506 385  Z " fill-rule="nonzero" fill="#f0f0f0" stroke="none" />
  <path d="M 1506 385.5  C 1509.08 385.5  1511.5 387.92  1511.5 391  C 1511.5 394.08  1509.08 396.5  1506 396.5  C 1502.92 396.5  1500.5 394.08  1500.5 391  C 1500.5 387.92  1502.92 385.5  1506 385.5  Z " stroke-width="1" stroke="#797979" fill="none" />
  <path d="M 1506 394  C 1504.32 394  1503 392.68  1503 391  C 1503 389.32  1504.32 388  1506 388  C 1507.68 388  1509 389.32  1509 391  C 1509 392.68  1507.68 394  1506 394  " fill-rule="nonzero" fill="#797979" stroke="none" />
</svg>