<?xml version="1.0" encoding="utf-8"?>
<svg version="1.1" xmlns:xlink="http://www.w3.org/1999/xlink" width="104px" height="104px" xmlns="http://www.w3.org/2000/svg">
  <g transform="matrix(1 0 0 1 -400 606 )">
    <path d="M 401 -602  A 3 3 0 0 1 404 -605 L 500 -605  A 3 3 0 0 1 503 -602 L 503 -506  A 3 3 0 0 1 500 -503 L 404 -503  A 3 3 0 0 1 401 -506 L 401 -602  Z " fill-rule="nonzero" fill="#ffffff" stroke="none" />
    <path d="M 400.5 -602  A 3.5 3.5 0 0 1 404 -605.5 L 500 -605.5  A 3.5 3.5 0 0 1 503.5 -602 L 503.5 -506  A 3.5 3.5 0 0 1 500 -502.5 L 404 -502.5  A 3.5 3.5 0 0 1 400.5 -506 L 400.5 -602  Z " stroke-width="1" stroke-dasharray="9,4" stroke="#d9d9d9" fill="none" stroke-dashoffset="0.5" />
  </g>
</svg>