<?xml version="1.0" encoding="utf-8"?>
<svg version="1.1" xmlns:xlink="http://www.w3.org/1999/xlink" width="48px" height="48px" xmlns="http://www.w3.org/2000/svg">
  <g transform="matrix(1 0 0 1 -1510 765 )">
    <path d="M 1534 -762.5  C 1546.04 -762.5  1555.5 -753.04  1555.5 -741  C 1555.5 -728.96  1546.04 -719.5  1534 -719.5  C 1521.96 -719.5  1512.5 -728.96  1512.5 -741  C 1512.5 -753.04  1521.96 -762.5  1534 -762.5  Z " fill-rule="nonzero" fill="#ffffff" stroke="none" />
    <path d="M 1534 -763.5  C 1546.6 -763.5  1556.5 -753.6  1556.5 -741  C 1556.5 -728.4  1546.6 -718.5  1534 -718.5  C 1521.4 -718.5  1511.5 -728.4  1511.5 -741  C 1511.5 -753.6  1521.4 -763.5  1534 -763.5  Z " stroke-width="3" stroke="#000000" fill="none" stroke-opacity="0.0392156862745098" />
  </g>
</svg>