<?xml version="1.0" encoding="utf-8"?>
<svg version="1.1" xmlns:xlink="http://www.w3.org/1999/xlink" width="48px" height="48px" xmlns="http://www.w3.org/2000/svg">
  <g transform="matrix(1 0 0 1 -1452 765 )">
    <path d="M 1476 -764  C 1488.88 -764  1499 -753.88  1499 -741  C 1499 -728.12  1488.88 -718  1476 -718  C 1463.12 -718  1453 -728.12  1453 -741  C 1453 -753.88  1463.12 -764  1476 -764  Z " fill-rule="nonzero" fill="#ffffff" stroke="none" />
    <path d="M 1476 -764  C 1488.88 -764  1499 -753.88  1499 -741  C 1499 -728.12  1488.88 -718  1476 -718  C 1463.12 -718  1453 -728.12  1453 -741  C 1453 -753.88  1463.12 -764  1476 -764  Z " stroke-width="2" stroke="#52c41a" fill="none" />
  </g>
</svg>