<?xml version="1.0" encoding="utf-8"?>
<svg version="1.1" xmlns:xlink="http://www.w3.org/1999/xlink" width="120px" height="120px" xmlns="http://www.w3.org/2000/svg">
  <g transform="matrix(1 0 0 1 -1203 802 )">
    <path d="M 1263 -797.5  C 1294.08 -797.5  1318.5 -773.08  1318.5 -742  C 1318.5 -710.92  1294.08 -686.5  1263 -686.5  C 1231.92 -686.5  1207.5 -710.92  1207.5 -742  C 1207.5 -773.08  1231.92 -797.5  1263 -797.5  Z " fill-rule="nonzero" fill="#ffffff" stroke="none" />
    <path d="M 1263 -799.5  C 1295.2 -799.5  1320.5 -774.2  1320.5 -742  C 1320.5 -709.8  1295.2 -684.5  1263 -684.5  C 1230.8 -684.5  1205.5 -709.8  1205.5 -742  C 1205.5 -774.2  1230.8 -799.5  1263 -799.5  Z " stroke-width="5" stroke="#000000" fill="none" stroke-opacity="0.0392156862745098" />
  </g>
</svg>