<?xml version="1.0" encoding="utf-8"?>
<svg version="1.1" xmlns:xlink="http://www.w3.org/1999/xlink" width="520px" height="30px" viewBox="1750 99  520 30" xmlns="http://www.w3.org/2000/svg">
  <path d="M 1751 101  A 1 1 0 0 1 1752 100 L 2268 100  A 1 1 0 0 1 2269 101 L 2269 127  A 1 1 0 0 1 2268 128 L 1752 128  A 1 1 0 0 1 1751 127 L 1751 101  Z " fill-rule="nonzero" fill="#ffffff" stroke="none" />
  <path d="M 1750.5 101  A 1.5 1.5 0 0 1 1752 99.5 L 2268 99.5  A 1.5 1.5 0 0 1 2269.5 101 L 2269.5 127  A 1.5 1.5 0 0 1 2268 128.5 L 1752 128.5  A 1.5 1.5 0 0 1 1750.5 127 L 1750.5 101  Z " stroke-width="1" stroke="#000000" fill="none" stroke-opacity="0.0862745098039216" />
</svg>