<?xml version="1.0" encoding="utf-8"?>
<svg version="1.1" xmlns:xlink="http://www.w3.org/1999/xlink" width="16px" height="16px" viewBox="1750 326  16 16" xmlns="http://www.w3.org/2000/svg">
  <path d="M 1758 326  C 1762.48 326  1766 329.52  1766 334  C 1766 338.48  1762.48 342  1758 342  C 1753.52 342  1750 338.48  1750 334  C 1750 329.52  1753.52 326  1758 326  Z " fill-rule="nonzero" fill="#f0f0f0" stroke="none" />
  <path d="M 1758 326.5  C 1762.2 326.5  1765.5 329.8  1765.5 334  C 1765.5 338.2  1762.2 341.5  1758 341.5  C 1753.8 341.5  1750.5 338.2  1750.5 334  C 1750.5 329.8  1753.8 326.5  1758 326.5  Z " stroke-width="1" stroke="#797979" fill="none" />
  <path d="M 1758 338  C 1755.76 338  1754 336.24  1754 334  C 1754 331.76  1755.76 330  1758 330  C 1760.24 330  1762 331.76  1762 334  C 1762 336.24  1760.24 338  1758 338  " fill-rule="nonzero" fill="#797979" stroke="none" />
</svg>