<?xml version="1.0" encoding="utf-8"?>
<svg version="1.1" xmlns:xlink="http://www.w3.org/1999/xlink" width="16px" height="16px" viewBox="1870 326  16 16" xmlns="http://www.w3.org/2000/svg">
  <path d="M 1878 326  C 1882.48 326  1886 329.52  1886 334  C 1886 338.48  1882.48 342  1878 342  C 1873.52 342  1870 338.48  1870 334  C 1870 329.52  1873.52 326  1878 326  Z " fill-rule="nonzero" fill="#ffffff" stroke="none" />
  <path d="M 1878 326.5  C 1882.2 326.5  1885.5 329.8  1885.5 334  C 1885.5 338.2  1882.2 341.5  1878 341.5  C 1873.8 341.5  1870.5 338.2  1870.5 334  C 1870.5 329.8  1873.8 326.5  1878 326.5  Z " stroke-width="1" stroke="#797979" fill="none" />
  <path d="M 1878 338  C 1875.76 338  1874 336.24  1874 334  C 1874 331.76  1875.76 330  1878 330  C 1880.24 330  1882 331.76  1882 334  C 1882 336.24  1880.24 338  1878 338  " fill-rule="nonzero" fill="#797979" stroke="none" />
</svg>