<?xml version="1.0" encoding="utf-8"?>
<svg version="1.1" xmlns:xlink="http://www.w3.org/1999/xlink" width="10px" height="10px" xmlns="http://www.w3.org/2000/svg">
  <g transform="matrix(1 0 0 1 -82 -414 )">
    <path d="M 87 414  C 89.8 414  92 416.2  92 419  C 92 421.8  89.8 424  87 424  C 84.2 424  82 421.8  82 419  C 82 416.2  84.2 414  87 414  Z " fill-rule="nonzero" fill="#ffffff" stroke="none" />
    <path d="M 87 414.5  C 89.52 414.5  91.5 416.48  91.5 419  C 91.5 421.52  89.52 423.5  87 423.5  C 84.48 423.5  82.5 421.52  82.5 419  C 82.5 416.48  84.48 414.5  87 414.5  Z " stroke-width="1" stroke="#797979" fill="none" />
  </g>
</svg>