<?xml version="1.0" encoding="utf-8"?>
<svg version="1.1" xmlns:xlink="http://www.w3.org/1999/xlink" width="370px" height="241px" xmlns="http://www.w3.org/2000/svg">
  <defs>
    <filter x="244px" y="611px" width="370px" height="241px" filterUnits="userSpaceOnUse" id="filter164">
      <feOffset dx="5" dy="5" in="SourceAlpha" result="shadowOffsetInner" />
      <feGaussianBlur stdDeviation="2.5" in="shadowOffsetInner" result="shadowGaussian" />
      <feComposite in2="shadowGaussian" operator="atop" in="SourceAlpha" result="shadowComposite" />
      <feColorMatrix type="matrix" values="0 0 0 0 0.250980392156863  0 0 0 0 0.619607843137255  0 0 0 0 1  0 0 0 0.0980392156862745 0  " in="shadowComposite" />
    </filter>
    <g id="widget165">
      <path d="M 246 616  A 3 3 0 0 1 249 613 L 599 613  A 3 3 0 0 1 602 616 L 602 837  A 3 3 0 0 1 599 840 L 249 840  A 3 3 0 0 1 246 837 L 246 616  Z " fill-rule="nonzero" fill="#ffffff" stroke="none" fill-opacity="0.149019607843137" />
      <path d="M 245 616  A 4 4 0 0 1 249 612 L 599 612  A 4 4 0 0 1 603 616 L 603 837  A 4 4 0 0 1 599 841 L 249 841  A 4 4 0 0 1 245 837 L 245 616  Z " stroke-width="2" stroke="#02a7f0" fill="none" stroke-opacity="0.149019607843137" />
    </g>
  </defs>
  <g transform="matrix(1 0 0 1 -244 -611 )">
    <use xlink:href="#widget165" filter="url(#filter164)" />
    <use xlink:href="#widget165" />
  </g>
</svg>