<?xml version="1.0" encoding="utf-8"?>
<svg version="1.1" xmlns:xlink="http://www.w3.org/1999/xlink" width="326px" height="140px" xmlns="http://www.w3.org/2000/svg">
  <defs>
    <filter x="346px" y="869px" width="326px" height="140px" filterUnits="userSpaceOnUse" id="filter261">
      <feOffset dx="5" dy="5" in="SourceAlpha" result="shadowOffsetInner" />
      <feGaussianBlur stdDeviation="2.5" in="shadowOffsetInner" result="shadowGaussian" />
      <feComposite in2="shadowGaussian" operator="atop" in="SourceAlpha" result="shadowComposite" />
      <feColorMatrix type="matrix" values="0 0 0 0 0.250980392156863  0 0 0 0 0.619607843137255  0 0 0 0 1  0 0 0 0.0980392156862745 0  " in="shadowComposite" />
    </filter>
    <g id="widget262">
      <path d="M 348 874  A 3 3 0 0 1 351 871 L 657 871  A 3 3 0 0 1 660 874 L 660 994  A 3 3 0 0 1 657 997 L 351 997  A 3 3 0 0 1 348 994 L 348 874  Z " fill-rule="nonzero" fill="#ffffff" stroke="none" fill-opacity="0.149019607843137" />
      <path d="M 347 874  A 4 4 0 0 1 351 870 L 657 870  A 4 4 0 0 1 661 874 L 661 994  A 4 4 0 0 1 657 998 L 351 998  A 4 4 0 0 1 347 994 L 347 874  Z " stroke-width="2" stroke="#02a7f0" fill="none" stroke-opacity="0.149019607843137" />
    </g>
  </defs>
  <g transform="matrix(1 0 0 1 -346 -869 )">
    <use xlink:href="#widget262" filter="url(#filter261)" />
    <use xlink:href="#widget262" />
  </g>
</svg>