<?xml version="1.0" encoding="utf-8"?>
<svg version="1.1" xmlns:xlink="http://www.w3.org/1999/xlink" width="15px" height="9px" xmlns="http://www.w3.org/2000/svg">
  <g transform="matrix(1 0 0 1 -842 -166 )">
    <path d="M 15 1.99565217391304  C 15 2.14927536231884  14.9410669975186 2.28115942028985  14.8232009925558 2.39130434782609  L 7.91873449131514 8.83478260869565  C 7.80086848635236 8.94492753623188  7.66129032258065 9  7.5 9  C 7.33870967741936 9  7.19913151364764 8.94492753623188  7.08126550868486 8.83478260869565  L 0.176799007444169 2.39130434782609  C 0.0589330024813897 2.28115942028985  0 2.14927536231884  0 1.99565217391304  C 0 1.84202898550725  0.0589330024813897 1.71014492753623  0.176799007444169 1.6  L 1.72146401985112 0.165217391304348  C 1.8393300248139 0.0550724637681156  1.97890818858561 0  2.14019851116625 0  C 2.3014888337469 0  2.44106699751861 0.0550724637681156  2.55893300248139 0.165217391304348  L 7.5 4.78260869565217  L 12.4410669975186 0.165217391304348  C 12.5589330024814 0.0550724637681156  12.6985111662531 0  12.8598014888337 0  C 13.0210918114144 0  13.1606699751861 0.0550724637681156  13.2785359801489 0.165217391304348  L 14.8232009925558 1.6  C 14.9410669975186 1.71014492753623  15 1.84202898550725  15 1.99565217391304  Z " fill-rule="nonzero" fill="#ffffff" stroke="none" transform="matrix(1 0 0 1 842 166 )" />
  </g>
</svg>