<?xml version="1.0" encoding="utf-8"?>
<svg version="1.1" xmlns:xlink="http://www.w3.org/1999/xlink" width="1000px" height="850px" xmlns="http://www.w3.org/2000/svg">
  <g transform="matrix(1 0 0 1 -1512 -311 )">
    <path d="M 1513 321  A 9 9 0 0 1 1522 312 L 2502 312  A 9 9 0 0 1 2511 321 L 2511 1151  A 9 9 0 0 1 2502 1160 L 1522 1160  A 9 9 0 0 1 1513 1151 L 1513 321  Z " fill-rule="nonzero" fill="#ffffff" stroke="none" />
    <path d="M 1512.5 321  A 9.5 9.5 0 0 1 1522 311.5 L 2502 311.5  A 9.5 9.5 0 0 1 2511.5 321 L 2511.5 1151  A 9.5 9.5 0 0 1 2502 1160.5 L 1522 1160.5  A 9.5 9.5 0 0 1 1512.5 1151 L 1512.5 321  Z " stroke-width="1" stroke="#000000" fill="none" stroke-opacity="0.0862745098039216" />
  </g>
</svg>