<?xml version="1.0" encoding="utf-8"?>
<svg version="1.1" xmlns:xlink="http://www.w3.org/1999/xlink" width="1000px" height="706px" xmlns="http://www.w3.org/2000/svg">
  <g transform="matrix(1 0 0 1 -260 -311 )">
    <path d="M 261 321  A 9 9 0 0 1 270 312 L 1250 312  A 9 9 0 0 1 1259 321 L 1259 1007  A 9 9 0 0 1 1250 1016 L 270 1016  A 9 9 0 0 1 261 1007 L 261 321  Z " fill-rule="nonzero" fill="#ffffff" stroke="none" />
    <path d="M 260.5 321  A 9.5 9.5 0 0 1 270 311.5 L 1250 311.5  A 9.5 9.5 0 0 1 1259.5 321 L 1259.5 1007  A 9.5 9.5 0 0 1 1250 1016.5 L 270 1016.5  A 9.5 9.5 0 0 1 260.5 1007 L 260.5 321  Z " stroke-width="1" stroke="#000000" fill="none" stroke-opacity="0.0862745098039216" />
  </g>
</svg>