<?xml version="1.0" encoding="utf-8"?>
<svg version="1.1" xmlns:xlink="http://www.w3.org/1999/xlink" width="465px" height="30px" viewBox="425 496  465 30" xmlns="http://www.w3.org/2000/svg">
  <path d="M 426 498  A 1 1 0 0 1 427 497 L 888 497  A 1 1 0 0 1 889 498 L 889 524  A 1 1 0 0 1 888 525 L 427 525  A 1 1 0 0 1 426 524 L 426 498  Z " fill-rule="nonzero" fill="#ffffff" stroke="none" />
  <path d="M 425.5 498  A 1.5 1.5 0 0 1 427 496.5 L 888 496.5  A 1.5 1.5 0 0 1 889.5 498 L 889.5 524  A 1.5 1.5 0 0 1 888 525.5 L 427 525.5  A 1.5 1.5 0 0 1 425.5 524 L 425.5 498  Z " stroke-width="1" stroke="#000000" fill="none" stroke-opacity="0.0862745098039216" />
</svg>