<?xml version="1.0" encoding="utf-8"?>
<svg version="1.1" xmlns:xlink="http://www.w3.org/1999/xlink" width="228px" height="30px" viewBox="425 605  228 30" xmlns="http://www.w3.org/2000/svg">
  <path d="M 426 607  A 1 1 0 0 1 427 606 L 651 606  A 1 1 0 0 1 652 607 L 652 633  A 1 1 0 0 1 651 634 L 427 634  A 1 1 0 0 1 426 633 L 426 607  Z " fill-rule="nonzero" fill="#f0f0f0" stroke="none" />
  <path d="M 425.5 607  A 1.5 1.5 0 0 1 427 605.5 L 651 605.5  A 1.5 1.5 0 0 1 652.5 607 L 652.5 633  A 1.5 1.5 0 0 1 651 634.5 L 427 634.5  A 1.5 1.5 0 0 1 425.5 633 L 425.5 607  Z " stroke-width="1" stroke="#000000" fill="none" stroke-opacity="0.0862745098039216" />
</svg>