<?xml version="1.0" encoding="utf-8"?>
<svg version="1.1" xmlns:xlink="http://www.w3.org/1999/xlink" width="1000px" height="140px" xmlns="http://www.w3.org/2000/svg">
  <g transform="matrix(1 0 0 1 -260 -1227 )">
    <path d="M 261 1237  A 9 9 0 0 1 270 1228 L 1250 1228  A 9 9 0 0 1 1259 1237 L 1259 1357  A 9 9 0 0 1 1250 1366 L 270 1366  A 9 9 0 0 1 261 1357 L 261 1237  Z " fill-rule="nonzero" fill="#ffffff" stroke="none" />
    <path d="M 260.5 1237  A 9.5 9.5 0 0 1 270 1227.5 L 1250 1227.5  A 9.5 9.5 0 0 1 1259.5 1237 L 1259.5 1357  A 9.5 9.5 0 0 1 1250 1366.5 L 270 1366.5  A 9.5 9.5 0 0 1 260.5 1357 L 260.5 1237  Z " stroke-width="1" stroke="#000000" fill="none" stroke-opacity="0.0862745098039216" />
  </g>
</svg>