<?xml version="1.0" encoding="utf-8"?>
<svg version="1.1" xmlns:xlink="http://www.w3.org/1999/xlink" width="1000px" height="170px" xmlns="http://www.w3.org/2000/svg">
  <g transform="matrix(1 0 0 1 -260 -1037 )">
    <path d="M 261 1047  A 9 9 0 0 1 270 1038 L 1250 1038  A 9 9 0 0 1 1259 1047 L 1259 1197  A 9 9 0 0 1 1250 1206 L 270 1206  A 9 9 0 0 1 261 1197 L 261 1047  Z " fill-rule="nonzero" fill="#ffffff" stroke="none" />
    <path d="M 260.5 1047  A 9.5 9.5 0 0 1 270 1037.5 L 1250 1037.5  A 9.5 9.5 0 0 1 1259.5 1047 L 1259.5 1197  A 9.5 9.5 0 0 1 1250 1206.5 L 270 1206.5  A 9.5 9.5 0 0 1 260.5 1197 L 260.5 1047  Z " stroke-width="1" stroke="#000000" fill="none" stroke-opacity="0.0862745098039216" />
  </g>
</svg>