<?xml version="1.0" encoding="utf-8"?>
<svg version="1.1" xmlns:xlink="http://www.w3.org/1999/xlink" width="180px" height="30px" viewBox="440 1415  180 30" xmlns="http://www.w3.org/2000/svg">
  <path d="M 441 1417  A 1 1 0 0 1 442 1416 L 618 1416  A 1 1 0 0 1 619 1417 L 619 1443  A 1 1 0 0 1 618 1444 L 442 1444  A 1 1 0 0 1 441 1443 L 441 1417  Z " fill-rule="nonzero" fill="#ffffff" stroke="none" />
  <path d="M 440.5 1417  A 1.5 1.5 0 0 1 442 1415.5 L 618 1415.5  A 1.5 1.5 0 0 1 619.5 1417 L 619.5 1443  A 1.5 1.5 0 0 1 618 1444.5 L 442 1444.5  A 1.5 1.5 0 0 1 440.5 1443 L 440.5 1417  Z " stroke-width="1" stroke="#000000" fill="none" stroke-opacity="0.0862745098039216" />
</svg>