<?xml version="1.0" encoding="utf-8"?>
<svg version="1.1" xmlns:xlink="http://www.w3.org/1999/xlink" width="1000px" height="213px" xmlns="http://www.w3.org/2000/svg">
  <g transform="matrix(1 0 0 1 -260 -1377 )">
    <path d="M 261 1387  A 9 9 0 0 1 270 1378 L 1250 1378  A 9 9 0 0 1 1259 1387 L 1259 1580  A 9 9 0 0 1 1250 1589 L 270 1589  A 9 9 0 0 1 261 1580 L 261 1387  Z " fill-rule="nonzero" fill="#ffffff" stroke="none" />
    <path d="M 260.5 1387  A 9.5 9.5 0 0 1 270 1377.5 L 1250 1377.5  A 9.5 9.5 0 0 1 1259.5 1387 L 1259.5 1580  A 9.5 9.5 0 0 1 1250 1589.5 L 270 1589.5  A 9.5 9.5 0 0 1 260.5 1580 L 260.5 1387  Z " stroke-width="1" stroke="#000000" fill="none" stroke-opacity="0.0862745098039216" />
  </g>
</svg>