<?xml version="1.0" encoding="utf-8"?>
<svg version="1.1" xmlns:xlink="http://www.w3.org/1999/xlink" width="185px" height="30px" viewBox="774 1415  185 30" xmlns="http://www.w3.org/2000/svg">
  <path d="M 775 1417  A 1 1 0 0 1 776 1416 L 957 1416  A 1 1 0 0 1 958 1417 L 958 1443  A 1 1 0 0 1 957 1444 L 776 1444  A 1 1 0 0 1 775 1443 L 775 1417  Z " fill-rule="nonzero" fill="#f0f0f0" stroke="none" />
  <path d="M 774.5 1417  A 1.5 1.5 0 0 1 776 1415.5 L 957 1415.5  A 1.5 1.5 0 0 1 958.5 1417 L 958.5 1443  A 1.5 1.5 0 0 1 957 1444.5 L 776 1444.5  A 1.5 1.5 0 0 1 774.5 1443 L 774.5 1417  Z " stroke-width="1" stroke="#000000" fill="none" stroke-opacity="0.0862745098039216" />
</svg>