<?xml version="1.0" encoding="utf-8"?>
<svg version="1.1" xmlns:xlink="http://www.w3.org/1999/xlink" width="1000px" height="866px" xmlns="http://www.w3.org/2000/svg">
  <g transform="matrix(1 0 0 1 -1805 -668 )">
    <path d="M 1806 678  A 9 9 0 0 1 1815 669 L 2795 669  A 9 9 0 0 1 2804 678 L 2804 1524  A 9 9 0 0 1 2795 1533 L 1815 1533  A 9 9 0 0 1 1806 1524 L 1806 678  Z " fill-rule="nonzero" fill="#ffffff" stroke="none" />
    <path d="M 1805.5 678  A 9.5 9.5 0 0 1 1815 668.5 L 2795 668.5  A 9.5 9.5 0 0 1 2804.5 678 L 2804.5 1524  A 9.5 9.5 0 0 1 2795 1533.5 L 1815 1533.5  A 9.5 9.5 0 0 1 1805.5 1524 L 1805.5 678  Z " stroke-width="1" stroke="#000000" fill="none" stroke-opacity="0.0862745098039216" />
  </g>
</svg>