<?xml version="1.0" encoding="utf-8"?>
<svg version="1.1" xmlns:xlink="http://www.w3.org/1999/xlink" width="1000px" height="120px" xmlns="http://www.w3.org/2000/svg">
  <g transform="matrix(1 0 0 1 -1803 -2094 )">
    <path d="M 1804 2104  A 9 9 0 0 1 1813 2095 L 2793 2095  A 9 9 0 0 1 2802 2104 L 2802 2204  A 9 9 0 0 1 2793 2213 L 1813 2213  A 9 9 0 0 1 1804 2204 L 1804 2104  Z " fill-rule="nonzero" fill="#ffffff" stroke="none" />
    <path d="M 1803.5 2104  A 9.5 9.5 0 0 1 1813 2094.5 L 2793 2094.5  A 9.5 9.5 0 0 1 2802.5 2104 L 2802.5 2204  A 9.5 9.5 0 0 1 2793 2213.5 L 1813 2213.5  A 9.5 9.5 0 0 1 1803.5 2204 L 1803.5 2104  Z " stroke-width="1" stroke="#000000" fill="none" stroke-opacity="0.0862745098039216" />
  </g>
</svg>