<?xml version="1.0" encoding="utf-8"?>
<svg version="1.1" xmlns:xlink="http://www.w3.org/1999/xlink" width="1000px" height="114px" xmlns="http://www.w3.org/2000/svg">
  <g transform="matrix(1 0 0 1 -1803 -1890 )">
    <path d="M 1804 1900  A 9 9 0 0 1 1813 1891 L 2793 1891  A 9 9 0 0 1 2802 1900 L 2802 1994  A 9 9 0 0 1 2793 2003 L 1813 2003  A 9 9 0 0 1 1804 1994 L 1804 1900  Z " fill-rule="nonzero" fill="#ffffff" stroke="none" />
    <path d="M 1803.5 1900  A 9.5 9.5 0 0 1 1813 1890.5 L 2793 1890.5  A 9.5 9.5 0 0 1 2802.5 1900 L 2802.5 1994  A 9.5 9.5 0 0 1 2793 2003.5 L 1813 2003.5  A 9.5 9.5 0 0 1 1803.5 1994 L 1803.5 1900  Z " stroke-width="1" stroke="#000000" fill="none" stroke-opacity="0.0862745098039216" />
  </g>
</svg>