<?xml version="1.0" encoding="utf-8"?>
<svg version="1.1" xmlns:xlink="http://www.w3.org/1999/xlink" width="1000px" height="250px" xmlns="http://www.w3.org/2000/svg">
  <g transform="matrix(1 0 0 1 -4098 -668 )">
    <path d="M 4099 678  A 9 9 0 0 1 4108 669 L 5088 669  A 9 9 0 0 1 5097 678 L 5097 908  A 9 9 0 0 1 5088 917 L 4108 917  A 9 9 0 0 1 4099 908 L 4099 678  Z " fill-rule="nonzero" fill="#ffffff" stroke="none" />
    <path d="M 4098.5 678  A 9.5 9.5 0 0 1 4108 668.5 L 5088 668.5  A 9.5 9.5 0 0 1 5097.5 678 L 5097.5 908  A 9.5 9.5 0 0 1 5088 917.5 L 4108 917.5  A 9.5 9.5 0 0 1 4098.5 908 L 4098.5 678  Z " stroke-width="1" stroke="#000000" fill="none" stroke-opacity="0.0862745098039216" />
  </g>
</svg>