<?xml version="1.0" encoding="utf-8"?>
<svg version="1.1" xmlns:xlink="http://www.w3.org/1999/xlink" width="16px" height="16px" viewBox="8260 630  16 16" xmlns="http://www.w3.org/2000/svg">
  <path d="M 8268 630  C 8272.48 630  8276 633.52  8276 638  C 8276 642.48  8272.48 646  8268 646  C 8263.52 646  8260 642.48  8260 638  C 8260 633.52  8263.52 630  8268 630  Z " fill-rule="nonzero" fill="#f0f0f0" stroke="none" />
  <path d="M 8268 630.5  C 8272.2 630.5  8275.5 633.8  8275.5 638  C 8275.5 642.2  8272.2 645.5  8268 645.5  C 8263.8 645.5  8260.5 642.2  8260.5 638  C 8260.5 633.8  8263.8 630.5  8268 630.5  Z " stroke-width="1" stroke="#797979" fill="none" />
  <path d="M 8268 642  C 8265.76 642  8264 640.24  8264 638  C 8264 635.76  8265.76 634  8268 634  C 8270.24 634  8272 635.76  8272 638  C 8272 640.24  8270.24 642  8268 642  " fill-rule="nonzero" fill="#797979" stroke="none" />
</svg>