<?xml version="1.0" encoding="utf-8"?>
<svg version="1.1" xmlns:xlink="http://www.w3.org/1999/xlink" width="16px" height="16px" viewBox="8136 630  16 16" xmlns="http://www.w3.org/2000/svg">
  <path d="M 8144 630  C 8148.48 630  8152 633.52  8152 638  C 8152 642.48  8148.48 646  8144 646  C 8139.52 646  8136 642.48  8136 638  C 8136 633.52  8139.52 630  8144 630  Z " fill-rule="nonzero" fill="#ffffff" stroke="none" />
  <path d="M 8144 630.5  C 8148.2 630.5  8151.5 633.8  8151.5 638  C 8151.5 642.2  8148.2 645.5  8144 645.5  C 8139.8 645.5  8136.5 642.2  8136.5 638  C 8136.5 633.8  8139.8 630.5  8144 630.5  Z " stroke-width="1" stroke="#797979" fill="none" />
  <path d="M 8144 642  C 8141.76 642  8140 640.24  8140 638  C 8140 635.76  8141.76 634  8144 634  C 8146.24 634  8148 635.76  8148 638  C 8148 640.24  8146.24 642  8144 642  " fill-rule="nonzero" fill="#797979" stroke="none" />
</svg>