<?xml version="1.0" encoding="utf-8"?>
<svg version="1.1" xmlns:xlink="http://www.w3.org/1999/xlink" width="16px" height="16px" viewBox="8136 880  16 16" xmlns="http://www.w3.org/2000/svg">
  <path d="M 8144 880  C 8148.48 880  8152 883.52  8152 888  C 8152 892.48  8148.48 896  8144 896  C 8139.52 896  8136 892.48  8136 888  C 8136 883.52  8139.52 880  8144 880  Z " fill-rule="nonzero" fill="#f0f0f0" stroke="none" />
  <path d="M 8144 880.5  C 8148.2 880.5  8151.5 883.8  8151.5 888  C 8151.5 892.2  8148.2 895.5  8144 895.5  C 8139.8 895.5  8136.5 892.2  8136.5 888  C 8136.5 883.8  8139.8 880.5  8144 880.5  Z " stroke-width="1" stroke="#797979" fill="none" />
  <path d="M 8144 892  C 8141.76 892  8140 890.24  8140 888  C 8140 885.76  8141.76 884  8144 884  C 8146.24 884  8148 885.76  8148 888  C 8148 890.24  8146.24 892  8144 892  " fill-rule="nonzero" fill="#797979" stroke="none" />
</svg>