<?xml version="1.0" encoding="utf-8"?>
<svg version="1.1" xmlns:xlink="http://www.w3.org/1999/xlink" width="16px" height="16px" viewBox="8262 1200  16 16" xmlns="http://www.w3.org/2000/svg">
  <path d="M 8270 1200  C 8274.48 1200  8278 1203.52  8278 1208  C 8278 1212.48  8274.48 1216  8270 1216  C 8265.52 1216  8262 1212.48  8262 1208  C 8262 1203.52  8265.52 1200  8270 1200  Z " fill-rule="nonzero" fill="#ffffff" stroke="none" />
  <path d="M 8270 1200.5  C 8274.2 1200.5  8277.5 1203.8  8277.5 1208  C 8277.5 1212.2  8274.2 1215.5  8270 1215.5  C 8265.8 1215.5  8262.5 1212.2  8262.5 1208  C 8262.5 1203.8  8265.8 1200.5  8270 1200.5  Z " stroke-width="1" stroke="#797979" fill="none" />
  <path d="M 8270 1212  C 8267.76 1212  8266 1210.24  8266 1208  C 8266 1205.76  8267.76 1204  8270 1204  C 8272.24 1204  8274 1205.76  8274 1208  C 8274 1210.24  8272.24 1212  8270 1212  " fill-rule="nonzero" fill="#797979" stroke="none" />
</svg>