<?xml version="1.0" encoding="utf-8"?>
<svg version="1.1" xmlns:xlink="http://www.w3.org/1999/xlink" width="202px" height="179px" xmlns="http://www.w3.org/2000/svg">
  <g transform="matrix(1 0 0 1 -1651 -861 )">
    <path d="M 37 130  L 55 130  L 55 146  L 37 146  L 37 130  Z M 37 33  L 55 33  L 55 49  L 37 49  L 37 33  Z M 147 33  L 165 33  L 165 49  L 147 49  L 147 33  Z M 19 114  L 19 162  L 74 162  L 74 114  L 19 114  Z M 19 17  L 19 65  L 74 65  L 74 17  L 19 17  Z M 128 17  L 128 65  L 183 65  L 183 17  L 128 17  Z M 0 97  L 92 97  L 92 179  L 0 179  L 0 97  Z M 147 162  L 165 162  L 165 179  L 147 179  L 147 162  Z M 183 162  L 202 162  L 202 179  L 183 179  L 183 162  Z M 183 97  L 202 97  L 202 146  L 147 146  L 147 130  L 128 130  L 128 179  L 110 179  L 110 97  L 165 97  L 165 114  L 183 114  L 183 97  Z M 0 0  L 92 0  L 92 82  L 0 82  L 0 0  Z M 110 0  L 202 0  L 202 82  L 110 82  L 110 0  Z " fill-rule="nonzero" fill="#000000" stroke="none" transform="matrix(1 0 0 1 1651 861 )" />
  </g>
</svg>