<?xml version="1.0" encoding="utf-8"?>
<svg version="1.1" xmlns:xlink="http://www.w3.org/1999/xlink" width="14px" height="14px" xmlns="http://www.w3.org/2000/svg">
  <g transform="matrix(1 0 0 1 -342 -320 )">
    <path d="M 349 320  C 352.92 320  356 323.08  356 327  C 356 330.92  352.92 334  349 334  C 345.08 334  342 330.92  342 327  C 342 323.08  345.08 320  349 320  Z " fill-rule="nonzero" fill="#ffffff" stroke="none" />
    <path d="M 349 320.5  C 352.64 320.5  355.5 323.36  355.5 327  C 355.5 330.64  352.64 333.5  349 333.5  C 345.36 333.5  342.5 330.64  342.5 327  C 342.5 323.36  345.36 320.5  349 320.5  Z " stroke-width="1" stroke="#dcdfe6" fill="none" />
  </g>
</svg>