<?xml version="1.0" encoding="utf-8"?>
<svg version="1.1" xmlns:xlink="http://www.w3.org/1999/xlink" width="14px" height="14px" xmlns="http://www.w3.org/2000/svg">
  <g transform="matrix(1 0 0 1 -438 -320 )">
    <path d="M 445 320  C 448.92 320  452 323.08  452 327  C 452 330.92  448.92 334  445 334  C 441.08 334  438 330.92  438 327  C 438 323.08  441.08 320  445 320  Z " fill-rule="nonzero" fill="#ffffff" stroke="none" />
    <path d="M 445 320.5  C 448.64 320.5  451.5 323.36  451.5 327  C 451.5 330.64  448.64 333.5  445 333.5  C 441.36 333.5  438.5 330.64  438.5 327  C 438.5 323.36  441.36 320.5  445 320.5  Z " stroke-width="1" stroke="#2e8ff4" fill="none" />
  </g>
</svg>