<?xml version="1.0" encoding="utf-8"?>
<svg version="1.1" xmlns:xlink="http://www.w3.org/1999/xlink" width="14px" height="14px" xmlns="http://www.w3.org/2000/svg">
  <g transform="matrix(1 0 0 1 -342 -320 )">
    <path d="M 349 324  C 350.68 324  352 325.32  352 327  C 352 328.68  350.68 330  349 330  C 347.32 330  346 328.68  346 327  C 346 325.32  347.32 324  349 324  Z " fill-rule="nonzero" fill="#ffffff" stroke="none" />
    <path d="M 349 322.5  C 351.52 322.5  353.5 324.48  353.5 327  C 353.5 329.52  351.52 331.5  349 331.5  C 346.48 331.5  344.5 329.52  344.5 327  C 344.5 324.48  346.48 322.5  349 322.5  Z " stroke-width="5" stroke="#2e8ff4" fill="none" />
  </g>
</svg>