<?xml version="1.0" encoding="utf-8"?>
<svg version="1.1" xmlns:xlink="http://www.w3.org/1999/xlink" width="112px" height="32px" xmlns="http://www.w3.org/2000/svg">
  <g transform="matrix(1 0 0 1 -518 -176 )">
    <path d="M 519 180  A 3 3 0 0 1 522 177 L 626 177  A 3 3 0 0 1 629 180 L 629 204  A 3 3 0 0 1 626 207 L 522 207  A 3 3 0 0 1 519 204 L 519 180  Z " fill-rule="nonzero" fill="#e6a23c" stroke="none" fill-opacity="0.0980392156862745" />
    <path d="M 518.5 180  A 3.5 3.5 0 0 1 522 176.5 L 626 176.5  A 3.5 3.5 0 0 1 629.5 180 L 629.5 204  A 3.5 3.5 0 0 1 626 207.5 L 522 207.5  A 3.5 3.5 0 0 1 518.5 204 L 518.5 180  Z " stroke-width="1" stroke="#e6a23c" fill="none" stroke-opacity="0.2" />
  </g>
</svg>