<?xml version="1.0" encoding="utf-8"?>
<svg version="1.1" xmlns:xlink="http://www.w3.org/1999/xlink" width="112px" height="32px" xmlns="http://www.w3.org/2000/svg">
  <g transform="matrix(1 0 0 1 -518 -176 )">
    <path d="M 518.5 180  A 3.5 3.5 0 0 1 522 176.5 L 626 176.5  A 3.5 3.5 0 0 1 629.5 180 L 629.5 204  A 3.5 3.5 0 0 1 626 207.5 L 522 207.5  A 3.5 3.5 0 0 1 518.5 204 L 518.5 180  Z " fill-rule="nonzero" fill="#0099ff" stroke="none" fill-opacity="0.0980392156862745" />
    <path d="M 518.5 180  A 3.5 3.5 0 0 1 522 176.5 L 626 176.5  A 3.5 3.5 0 0 1 629.5 180 L 629.5 204  A 3.5 3.5 0 0 1 626 207.5 L 522 207.5  A 3.5 3.5 0 0 1 518.5 204 L 518.5 180  Z " stroke-width="1" stroke="#a7d2f9" fill="none" />
  </g>
</svg>