<?xml version="1.0" encoding="utf-8"?>
<svg version="1.1" xmlns:xlink="http://www.w3.org/1999/xlink" width="27px" height="27px" xmlns="http://www.w3.org/2000/svg">
  <g transform="matrix(1 0 0 1 -519 -30 )">
    <path d="M 26.3587933247754 12.6195652173913  C 26.7862644415918 13.0964673913043  27 13.6528532608696  27 14.288722826087  C 27 14.9123641304348  26.7862644415918 15.4626358695652  26.3587933247754 15.9395380434783  L 25.0590500641849 17.3152173913043  C 24.620025673941 17.7798913043478  24.094351732991 18.0122282608696  23.482028241335 18.0122282608696  C 22.8581514762516 18.0122282608696  22.3382541720154 17.7798913043478  21.9223363286264 17.3152173913043  L 16.8273427471117 11.9408967391304  L 16.8273427471117 24.8539402173913  C 16.8273427471117 25.4898097826087  16.6107188703466 26.0064538043478  16.1774711168164 26.4038722826087  C 15.7442233632863 26.8012907608696  15.2214377406932 27  14.6091142490372 27  L 12.3908857509628 27  C 11.7785622593068 27  11.2557766367137 26.8012907608696  10.8225288831836 26.4038722826087  C 10.3892811296534 26.0064538043478  10.1726572528883 25.4898097826087  10.1726572528883 24.8539402173913  L 10.1726572528883 11.9408967391304  L 5.07766367137356 17.3152173913043  C 4.6617458279846 17.7798913043478  4.1418485237484 18.0122282608696  3.51797175866496 18.0122282608696  C 2.89409499358151 18.0122282608696  2.37419768934531 17.7798913043478  1.95827984595635 17.3152173913043  L 0.658536585365854 15.9395380434783  C 0.219512195121951 15.4748641304348  0 14.9245923913043  0 14.288722826087  C 0 13.640625  0.219512195121951 13.0842391304348  0.658536585365854 12.6195652173913  L 11.9403080872914 0.67866847826087  C 12.3446726572529 0.226222826086956  12.8645699614891 0  13.5 0  C 14.1238767650834 0  14.6495507060334 0.226222826086956  15.0770218228498 0.67866847826087  L 26.3587933247754 12.6195652173913  Z " fill-rule="nonzero" fill="#f5f5f5" stroke="none" transform="matrix(1 0 0 1 519 30 )" />
  </g>
</svg>