<?xml version="1.0" encoding="utf-8"?>
<svg version="1.1" xmlns:xlink="http://www.w3.org/1999/xlink" width="42px" height="42px" xmlns="http://www.w3.org/2000/svg">
  <g transform="matrix(1 0 0 1 -183 -229 )">
    <path d="M 204 229  C 215.76 229  225 238.24  225 250  C 225 261.76  215.76 271  204 271  C 192.24 271  183 261.76  183 250  C 183 238.24  192.24 229  204 229  Z " fill-rule="nonzero" fill="#ffffff" stroke="none" />
    <path d="M 204 229.5  C 215.48 229.5  224.5 238.52  224.5 250  C 224.5 261.48  215.48 270.5  204 270.5  C 192.52 270.5  183.5 261.48  183.5 250  C 183.5 238.52  192.52 229.5  204 229.5  Z " stroke-width="1" stroke="#797979" fill="none" />
  </g>
</svg>