<?xml version="1.0" encoding="utf-8"?>
<svg version="1.1" xmlns:xlink="http://www.w3.org/1999/xlink" width="149px" height="131px" xmlns="http://www.w3.org/2000/svg">
  <g transform="matrix(1 0 0 1 -947 -72 )">
    <path d="M 27 95  L 41 95  L 41 107  L 27 107  L 27 95  Z M 27 24  L 41 24  L 41 36  L 27 36  L 27 24  Z M 108 24  L 122 24  L 122 36  L 108 36  L 108 24  Z M 14 83  L 14 119  L 55 119  L 55 83  L 14 83  Z M 14 12  L 14 48  L 55 48  L 55 12  L 14 12  Z M 94 12  L 94 48  L 135 48  L 135 12  L 94 12  Z M 0 71  L 68 71  L 68 131  L 0 131  L 0 71  Z M 108 119  L 122 119  L 122 131  L 108 131  L 108 119  Z M 135 119  L 149 119  L 149 131  L 135 131  L 135 119  Z M 135 71  L 149 71  L 149 107  L 108 107  L 108 95  L 94 95  L 94 131  L 81 131  L 81 71  L 122 71  L 122 83  L 135 83  L 135 71  Z M 0 0  L 68 0  L 68 60  L 0 60  L 0 0  Z M 81 0  L 149 0  L 149 60  L 81 60  L 81 0  Z " fill-rule="nonzero" fill="#000000" stroke="none" transform="matrix(1 0 0 1 947 72 )" />
  </g>
</svg>