<?xml version="1.0" encoding="utf-8"?>
<svg version="1.1" xmlns:xlink="http://www.w3.org/1999/xlink" width="104px" height="104px" xmlns="http://www.w3.org/2000/svg">
  <g transform="matrix(1 0 0 1 -239 -89 )">
    <path d="M 240 93  A 3 3 0 0 1 243 90 L 339 90  A 3 3 0 0 1 342 93 L 342 189  A 3 3 0 0 1 339 192 L 243 192  A 3 3 0 0 1 240 189 L 240 93  Z " fill-rule="nonzero" fill="#000000" stroke="none" fill-opacity="0.0196078431372549" />
    <path d="M 239.5 93  A 3.5 3.5 0 0 1 243 89.5 L 339 89.5  A 3.5 3.5 0 0 1 342.5 93 L 342.5 189  A 3.5 3.5 0 0 1 339 192.5 L 243 192.5  A 3.5 3.5 0 0 1 239.5 189 L 239.5 93  Z " stroke-width="1" stroke-dasharray="9,4" stroke="#d9d9d9" fill="none" stroke-dashoffset="0.5" />
  </g>
</svg>