<?xml version="1.0" encoding="utf-8"?>
<svg version="1.1" xmlns:xlink="http://www.w3.org/1999/xlink" width="10px" height="201px" preserveAspectRatio="xMidYMin meet" viewBox="1115 41  8 201" xmlns="http://www.w3.org/2000/svg">
  <path d="M 1051 237  L 1119 237  L 1119 159  A 3 3 0 0 0 1122 156 A 3 3 0 0 0 1119 153 L 1119 88  A 3 3 0 0 0 1122 85 A 3 3 0 0 0 1119 82 L 1119 46  L 1236 46  " stroke-width="2" stroke-dasharray="6,2" stroke="#f0f500" fill="none" />
  <path d="M 1230.89289321881 41.7071067811865  L 1235.18578643763 46  L 1230.89289321881 50.2928932188135  L 1232.30710678119 51.7071067811865  L 1237.30710678119 46.7071067811865  L 1238.01421356237 46  L 1237.30710678119 45.2928932188135  L 1232.30710678119 40.2928932188135  L 1230.89289321881 41.7071067811865  Z " fill-rule="nonzero" fill="#f0f500" stroke="none" />
</svg>