<?xml version="1.0" encoding="utf-8"?>
<svg version="1.1" xmlns:xlink="http://www.w3.org/1999/xlink" width="124px" height="10px" preserveAspectRatio="xMinYMid meet" viewBox="1114 180  124 8" xmlns="http://www.w3.org/2000/svg">
  <path d="M 1051 237  L 1119 237  L 1119 184  L 1157 184  A 3 3 0 0 1 1160 181 A 3 3 0 0 1 1163 184 L 1203 184  A 3 3 0 0 1 1206 181 A 3 3 0 0 1 1209 184 L 1236 184  " stroke-width="2" stroke-dasharray="6,2" stroke="#f0f500" fill="none" />
  <path d="M 1230.89289321881 179.707106781187  L 1235.18578643763 184  L 1230.89289321881 188.292893218813  L 1232.30710678119 189.707106781187  L 1237.30710678119 184.707106781187  L 1238.01421356237 184  L 1237.30710678119 183.292893218813  L 1232.30710678119 178.292893218813  L 1230.89289321881 179.707106781187  Z " fill-rule="nonzero" fill="#f0f500" stroke="none" />
</svg>