<?xml version="1.0" encoding="utf-8"?>
<svg version="1.1" xmlns:xlink="http://www.w3.org/1999/xlink" width="50px" height="50px" xmlns="http://www.w3.org/2000/svg">
  <g transform="matrix(1 0 0 1 -1127 -217 )">
    <path d="M 1127 217  L 1177 217  L 1177 267  L 1127 267  L 1127 217  " fill-rule="nonzero" fill="#cccccc" stroke="none" />
    <path d="M 1131 221  L 1173 221  L 1173 263  L 1131 263  L 1131 221  " fill-rule="nonzero" fill="#ffffff" stroke="none" />
    <path d="M 1156.75 232  C 1154.65 232  1153 230.35  1153 228.25  C 1153 226.15  1154.65 224.5  1156.75 224.5  C 1158.85 224.5  1160.5 226.15  1160.5 228.25  C 1160.5 230.35  1158.85 232  1156.75 232  " fill-rule="nonzero" fill="#cccccc" stroke="none" />
    <path d="M 1133 262  L 1133 240.55  L 1142.75 230.8  L 1156.4 238.6  L 1164.2 236.65  L 1172 238.6  L 1172 262  L 1133 262  " fill-rule="nonzero" fill="#169bd5" stroke="none" />
  </g>
</svg>