<?xml version="1.0" encoding="utf-8"?>
<svg version="1.1" xmlns:xlink="http://www.w3.org/1999/xlink" width="60px" height="20px" xmlns="http://www.w3.org/2000/svg">
  <g transform="matrix(1 0 0 1 -1533 387 )">
    <path d="M 1534 -383  A 3 3 0 0 1 1537 -386 L 1589 -386  A 3 3 0 0 1 1592 -383 L 1592 -371  A 3 3 0 0 1 1589 -368 L 1537 -368  A 3 3 0 0 1 1534 -371 L 1534 -383  Z " fill-rule="nonzero" fill="#f5f5f5" stroke="none" fill-opacity="0" />
    <path d="M 1533.5 -383  A 3.5 3.5 0 0 1 1537 -386.5 L 1589 -386.5  A 3.5 3.5 0 0 1 1592.5 -383 L 1592.5 -371  A 3.5 3.5 0 0 1 1589 -367.5 L 1537 -367.5  A 3.5 3.5 0 0 1 1533.5 -371 L 1533.5 -383  Z " stroke-width="1" stroke-dasharray="3,1" stroke="#d9d9d9" fill="none" stroke-dashoffset="0.5" />
  </g>
</svg>