<?xml version="1.0" encoding="utf-8"?>
<svg version="1.1" xmlns:xlink="http://www.w3.org/1999/xlink" width="19px" height="20px" xmlns="http://www.w3.org/2000/svg">
  <g transform="matrix(1 0 0 1 -1254 -166 )">
    <path d="M 18.5805027173913 8.01668806161746  C 18.8601675724638 8.33761232349166  19 8.72486093281985  19 9.17843388960205  L 19 10.8215661103979  C 19 11.2751390671801  18.8601675724638 11.6623876765083  18.5805027173913 11.9833119383825  C 18.3008378623188 12.3042362002567  17.9372735507246 12.4646983311938  17.4898097826087 12.4646983311938  L 8.40285326086956 12.4646983311938  L 12.1847826086957 16.2387676508344  C 12.5117753623188 16.5468549422336  12.6752717391304 16.9319640564827  12.6752717391304 17.3940949935815  C 12.6752717391304 17.8562259306804  12.5117753623188 18.2413350449294  12.1847826086957 18.5494223363286  L 11.2167119565217 19.5250320924262  C 10.8983242753623 19.8416773641421  10.5110960144928 20  10.055027173913 20  C 9.6075634057971 20  9.21603260869565 19.8416773641421  8.8804347826087 19.5250320924262  L 0.47758152173913 11.1553273427471  C 0.15919384057971 10.8386820710312  0 10.4535729567822  0 10  C 0 9.55498502353445  0.15919384057971 9.16559691912709  0.47758152173913 8.83183568677792  L 8.8804347826087 0.487804878048781  C 9.20742753623188 0.162601626016259  9.59895833333333 0  10.055027173913 0  C 10.502490942029 0  10.8897192028986 0.162601626016259  11.2167119565217 0.487804878048781  L 12.1847826086957 1.43774069319641  C 12.5117753623188 1.76294394522893  12.6752717391304 2.15233204963628  12.6752717391304 2.60590500641849  C 12.6752717391304 3.05947796320068  12.5117753623188 3.44886606760804  12.1847826086957 3.77406931964057  L 8.40285326086956 7.53530166880616  L 17.4898097826087 7.53530166880616  C 17.9372735507246 7.53530166880616  18.3008378623188 7.69576379974326  18.5805027173913 8.01668806161746  Z " fill-rule="nonzero" fill="#000000" stroke="none" transform="matrix(1 0 0 1 1254 166 )" />
  </g>
</svg>