<?xml version="1.0" encoding="utf-8"?>
<svg version="1.1" xmlns:xlink="http://www.w3.org/1999/xlink" width="72px" height="47px" xmlns="http://www.w3.org/2000/svg">
  <g transform="matrix(1 0 0 1 -339 -288 )">
    <path d="M 339 288  L 411 288  L 411 335  L 339 335  L 339 288  " fill-rule="nonzero" fill="#cccccc" stroke="none" />
    <path d="M 342 291  L 408 291  L 408 332  L 342 332  L 342 291  " fill-rule="nonzero" fill="#ffffff" stroke="none" />
    <path d="M 379.965 302.1  C 377.991 302.1  376.44 300.549  376.44 298.575  C 376.44 296.601  377.991 295.05  379.965 295.05  C 381.939 295.05  383.49 296.601  383.49 298.575  C 383.49 300.549  381.939 302.1  379.965 302.1  " fill-rule="nonzero" fill="#cccccc" stroke="none" />
    <path d="M 343 331  L 343 309.55  L 359 299.8  L 381.4 315.725  L 394.2 305.65  L 407 315.725  L 407 331  L 343 331  " fill-rule="nonzero" fill="#169bd5" stroke="none" />
  </g>
</svg>