<?xml version="1.0" encoding="utf-8"?>
<svg version="1.1" xmlns:xlink="http://www.w3.org/1999/xlink" width="31px" height="10px" preserveAspectRatio="xMinYMid meet" viewBox="441 373  31 8" xmlns="http://www.w3.org/2000/svg">
  <defs>
    <mask fill="white" id="clip107">
      <path d="M 440 570  L 532 570  L 532 596  L 440 596  Z M 440 367  L 715 367  L 715 596  L 440 596  Z " fill-rule="evenodd" />
    </mask>
  </defs>
  <path d="M 712 537  L 712 578  A 5 5 0 0 1 707 583 L 451 583  A 5 5 0 0 1 446 578 L 446 382  A 5 5 0 0 1 451 377 L 470 377  " stroke-width="2" stroke="#1890ff" fill="none" mask="url(#clip107)" />
  <path d="M 464.892893218813 372.707106781187  L 469.185786437627 377  L 464.892893218813 381.292893218813  L 466.307106781187 382.707106781187  L 471.307106781187 377.707106781187  L 472.014213562373 377  L 471.307106781187 376.292893218813  L 466.307106781187 371.292893218813  L 464.892893218813 372.707106781187  Z " fill-rule="nonzero" fill="#1890ff" stroke="none" mask="url(#clip107)" />
</svg>