<?xml version="1.0" encoding="utf-8"?>
<svg version="1.1" xmlns:xlink="http://www.w3.org/1999/xlink" width="25px" height="25px" xmlns="http://www.w3.org/2000/svg">
  <g transform="matrix(1 0 0 1 -931 -26 )">
    <path d="M 20.8333333333333 7.14285714285714  C 20.8333333333333 8.51004464285714  20.4047309027778 9.77492559523809  19.5475260416667 10.9375  C 20.0575086805556 11.0677083333333  20.5430772569444 11.2444196428571  21.0042317708333 11.4676339285714  C 21.4653862847222 11.6908482142857  21.9482421875 12.0303199404762  22.4527994791667 12.4860491071429  C 22.9573567708333 12.9417782738095  23.388671875 13.4788876488095  23.7467447916667 14.0973772321429  C 24.1048177083333 14.7158668154762  24.4032118055556 15.5157180059524  24.6419270833333 16.4969308035714  C 24.8806423611111 17.4781436011905  25 18.5779389880952  25 19.7963169642857  C 25 21.2286086309524  24.4574652777778 22.4539620535714  23.3723958333333 23.4723772321429  C 22.2873263888889 24.4907924107143  20.9798177083333 25  19.4498697916667 25  L 5.55013020833333 25  C 4.02018229166667 25  2.71267361111111 24.4907924107143  1.62760416666667 23.4723772321429  C 0.542534722222222 22.4539620535714  0 21.2286086309524  0 19.7963169642857  C 0 18.5779389880952  0.119357638888889 17.4781436011905  0.358072916666667 16.4969308035714  C 0.596788194444445 15.5157180059524  0.895182291666667 14.7158668154762  1.25325520833333 14.0973772321429  C 1.611328125 13.4788876488095  2.04264322916667 12.9417782738095  2.54720052083333 12.4860491071429  C 3.0517578125 12.0303199404762  3.53461371527778 11.6908482142857  3.99576822916667 11.4676339285714  C 4.45692274305556 11.2444196428571  4.94249131944444 11.0677083333333  5.45247395833333 10.9375  C 4.59526909722222 9.77492559523809  4.16666666666667 8.51004464285714  4.16666666666667 7.14285714285714  C 4.16666666666667 6.17559523809524  4.38639322916667 5.25251116071428  4.82584635416667 4.37360491071428  C 5.26529947916667 3.49469866071428  5.859375 2.734375  6.60807291666667 2.09263392857143  C 7.35677083333333 1.45089285714286  8.24381510416667 0.941685267857142  9.26920572916667 0.565011160714285  C 10.2945963541667 0.188337053571427  11.3715277777778 0  12.5 0  C 13.6284722222222 0  14.7054036458333 0.188337053571427  15.7307942708333 0.565011160714285  C 16.7561848958333 0.941685267857142  17.6432291666667 1.45089285714286  18.3919270833333 2.09263392857143  C 19.140625 2.734375  19.7347005208333 3.49469866071428  20.1741536458333 4.37360491071428  C 20.6136067708333 5.25251116071428  20.8333333333333 6.17559523809524  20.8333333333333 7.14285714285714  Z M 16.9189453125 3.35518973214286  C 15.6982421875 2.30887276785714  14.2252604166667 1.78571428571428  12.5 1.78571428571428  C 10.7747395833333 1.78571428571428  9.3017578125 2.30887276785714  8.0810546875 3.35518973214286  C 6.8603515625 4.40150669642857  6.25 5.6640625  6.25 7.14285714285714  C 6.25 8.62165178571428  6.8603515625 9.88420758928572  8.0810546875 10.9305245535714  C 9.3017578125 11.9768415178571  10.7747395833333 12.5  12.5 12.5  C 14.2252604166667 12.5  15.6982421875 11.9768415178571  16.9189453125 10.9305245535714  C 18.1396484375 9.88420758928572  18.75 8.62165178571428  18.75 7.14285714285714  C 18.75 5.6640625  18.1396484375 4.40150669642857  16.9189453125 3.35518973214286  Z M 5.55013020833333 23  L 19.4498697916667 23  C 20.4047309027778 23.2142857142857  21.2212456597222 22.8817894345238  21.8994140625 22.216796875  C 22.5775824652778 21.5518043154762  22.9166666666667 20.7449776785714  22.9166666666667 19.7963169642857  C 22.9166666666667 17.5734747023809  22.4907769097222 15.8203125  21.6389973958333 14.5368303571429  C 20.7872178819444 13.2533482142857  19.5638020833333 12.5790550595238  17.96875 12.5139508928571  C 16.3953993055556 13.6951264880952  14.5724826388889 14.2857142857143  12.5 14.2857142857143  C 10.4275173611111 14.2857142857143  8.60460069444445 13.6951264880952  7.03125 12.5139508928571  C 5.43619791666667 12.5790550595238  4.21278211805556 13.2533482142857  3.36100260416667 14.5368303571429  C 2.50922309027778 15.8203125  2.08333333333333 17.5734747023809  2.08333333333333 19.7963169642857  C 2.08333333333333 20.7449776785714  2.42241753472222 21.5518043154762  3.1005859375 22.216796875  C 3.77875434027778 22.8817894345238  4.59526909722222 23.2142857142857  5.55013020833333 23  Z " fill-rule="nonzero" fill="#ffffff" stroke="none" transform="matrix(1 0 0 1 931 26 )" />
  </g>
</svg>