<?xml version="1.0" encoding="utf-8"?>
<svg version="1.1" xmlns:xlink="http://www.w3.org/1999/xlink" width="25px" height="25px" xmlns="http://www.w3.org/2000/svg">
  <g transform="matrix(1 0 0 1 -322 -113 )">
    <path d="M 10.9375 20.9309895833333  C 11.2196180555556 20.9309895833333  11.4637586805556 20.8279079861111  11.669921875 20.6217447916667  L 19.0592447916667 13.232421875  C 19.2654079861111 13.0262586805556  19.3684895833333 12.7821180555556  19.3684895833333 12.5  C 19.3684895833333 12.2178819444444  19.2654079861111 11.9737413194444  19.0592447916667 11.767578125  L 11.669921875 4.37825520833333  C 11.4637586805556 4.17209201388889  11.2196180555556 4.06901041666667  10.9375 4.06901041666667  C 10.6553819444444 4.06901041666667  10.4112413194444 4.17209201388889  10.205078125 4.37825520833333  L 8.544921875 6.03841145833333  C 8.33875868055556 6.24457465277778  8.23567708333333 6.48871527777778  8.23567708333333 6.77083333333333  C 8.23567708333333 7.05295138888889  8.33875868055556 7.29709201388889  8.544921875 7.50325520833333  L 13.5416666666667 12.5  L 8.544921875 17.4967447916667  C 8.33875868055556 17.7029079861111  8.23567708333333 17.9470486111111  8.23567708333333 18.2291666666667  C 8.23567708333333 18.5112847222222  8.33875868055556 18.7554253472222  8.544921875 18.9615885416667  L 10.205078125 20.6217447916667  C 10.4112413194444 20.8279079861111  10.6553819444444 20.9309895833333  10.9375 20.9309895833333  Z M 23.3235677083333 6.2255859375  C 24.4411892361111 8.14073350694444  25 10.2322048611111  25 12.5  C 25 14.7677951388889  24.4411892361111 16.8592664930556  23.3235677083333 18.7744140625  C 22.2059461805556 20.6895616319444  20.6895616319444 22.2059461805556  18.7744140625 23.3235677083333  C 16.8592664930556 24.4411892361111  14.7677951388889 25  12.5 25  C 10.2322048611111 25  8.14073350694444 24.4411892361111  6.2255859375 23.3235677083333  C 4.31043836805556 22.2059461805556  2.79405381944444 20.6895616319444  1.67643229166667 18.7744140625  C 0.558810763888889 16.8592664930556  0 14.7677951388889  0 12.5  C 0 10.2322048611111  0.558810763888889 8.14073350694444  1.67643229166667 6.2255859375  C 2.79405381944444 4.31043836805556  4.31043836805556 2.79405381944444  6.2255859375 1.67643229166667  C 8.14073350694444 0.558810763888887  10.2322048611111 0  12.5 0  C 14.7677951388889 0  16.8592664930556 0.558810763888887  18.7744140625 1.67643229166667  C 20.6895616319444 2.79405381944444  22.2059461805556 4.31043836805556  23.3235677083333 6.2255859375  Z " fill-rule="nonzero" fill="#ffffff" stroke="none" transform="matrix(1 0 0 1 322 113 )" />
  </g>
</svg>