<?xml version="1.0" encoding="utf-8"?>
<svg version="1.1" xmlns:xlink="http://www.w3.org/1999/xlink" width="30px" height="23px" xmlns="http://www.w3.org/2000/svg">
  <g transform="matrix(1 0 0 1 -85 -734 )">
    <path d="M 6.26953125 16.8824573863636  C 6.37555803571429 16.9859138257576  6.42857142857143 17.108428030303  6.42857142857143 17.25  L 6.42857142857143 18.2954545454545  C 6.42857142857143 18.4370265151515  6.37555803571429 18.559540719697  6.26953125 18.6629971590909  C 6.16350446428571 18.7664535984848  6.03794642857143 18.8181818181818  5.89285714285714 18.8181818181818  L 4.82142857142857 18.8181818181818  C 4.67633928571429 18.8181818181818  4.55078125 18.7664535984848  4.44475446428571 18.6629971590909  C 4.33872767857143 18.559540719697  4.28571428571429 18.4370265151515  4.28571428571429 18.2954545454545  L 4.28571428571429 17.25  C 4.28571428571429 17.108428030303  4.33872767857143 16.9859138257576  4.44475446428571 16.8824573863636  C 4.55078125 16.7790009469697  4.67633928571429 16.7272727272727  4.82142857142857 16.7272727272727  L 5.89285714285714 16.7272727272727  C 6.03794642857143 16.7272727272727  6.16350446428571 16.7790009469697  6.26953125 16.8824573863636  Z M 6.26953125 12.7006392045455  C 6.37555803571429 12.8040956439394  6.42857142857143 12.9266098484848  6.42857142857143 13.0681818181818  L 6.42857142857143 14.1136363636364  C 6.42857142857143 14.2552083333333  6.37555803571429 14.3777225378788  6.26953125 14.4811789772727  C 6.16350446428571 14.5846354166667  6.03794642857143 14.6363636363636  5.89285714285714 14.6363636363636  L 4.82142857142857 14.6363636363636  C 4.67633928571429 14.6363636363636  4.55078125 14.5846354166667  4.44475446428571 14.4811789772727  C 4.33872767857143 14.3777225378788  4.28571428571429 14.2552083333333  4.28571428571429 14.1136363636364  L 4.28571428571429 13.0681818181818  C 4.28571428571429 12.9266098484848  4.33872767857143 12.8040956439394  4.44475446428571 12.7006392045455  C 4.55078125 12.5971827651515  4.67633928571429 12.5454545454545  4.82142857142857 12.5454545454545  L 5.89285714285714 12.5454545454545  C 6.03794642857143 12.5454545454545  6.16350446428571 12.5971827651515  6.26953125 12.7006392045455  Z M 6.26953125 8.51882102272727  C 6.37555803571429 8.62227746212121  6.42857142857143 8.74479166666666  6.42857142857143 8.88636363636364  L 6.42857142857143 9.93181818181818  C 6.42857142857143 10.0733901515152  6.37555803571429 10.1959043560606  6.26953125 10.2993607954545  C 6.16350446428571 10.4028172348485  6.03794642857143 10.4545454545455  5.89285714285714 10.4545454545455  L 4.82142857142857 10.4545454545455  C 4.67633928571429 10.4545454545455  4.55078125 10.4028172348485  4.44475446428571 10.2993607954545  C 4.33872767857143 10.1959043560606  4.28571428571429 10.0733901515152  4.28571428571429 9.93181818181818  L 4.28571428571429 8.88636363636364  C 4.28571428571429 8.74479166666666  4.33872767857143 8.62227746212121  4.44475446428571 8.51882102272727  C 4.55078125 8.41536458333333  4.67633928571429 8.36363636363636  4.82142857142857 8.36363636363636  L 5.89285714285714 8.36363636363636  C 6.03794642857143 8.36363636363636  6.16350446428571 8.41536458333333  6.26953125 8.51882102272727  Z M 25.5552455357143 16.8824573863636  C 25.6612723214286 16.9859138257576  25.7142857142857 17.108428030303  25.7142857142857 17.25  L 25.7142857142857 18.2954545454545  C 25.7142857142857 18.4370265151515  25.6612723214286 18.559540719697  25.5552455357143 18.6629971590909  C 25.44921875 18.7664535984848  25.3236607142857 18.8181818181818  25.1785714285714 18.8181818181818  L 9.10714285714286 18.8181818181818  C 8.96205357142857 18.8181818181818  8.83649553571429 18.7664535984848  8.73046875 18.6629971590909  C 8.62444196428572 18.559540719697  8.57142857142857 18.4370265151515  8.57142857142857 18.2954545454545  L 8.57142857142857 17.25  C 8.57142857142857 17.108428030303  8.62444196428572 16.9859138257576  8.73046875 16.8824573863636  C 8.83649553571429 16.7790009469697  8.96205357142857 16.7272727272727  9.10714285714286 16.7272727272727  L 25.1785714285714 16.7272727272727  C 25.3236607142857 16.7272727272727  25.44921875 16.7790009469697  25.5552455357143 16.8824573863636  Z M 25.5552455357143 12.7006392045455  C 25.6612723214286 12.8040956439394  25.7142857142857 12.9266098484848  25.7142857142857 13.0681818181818  L 25.7142857142857 14.1136363636364  C 25.7142857142857 14.2552083333333  25.6612723214286 14.3777225378788  25.5552455357143 14.4811789772727  C 25.44921875 14.5846354166667  25.3236607142857 14.6363636363636  25.1785714285714 14.6363636363636  L 9.10714285714286 14.6363636363636  C 8.96205357142857 14.6363636363636  8.83649553571429 14.5846354166667  8.73046875 14.4811789772727  C 8.62444196428572 14.3777225378788  8.57142857142857 14.2552083333333  8.57142857142857 14.1136363636364  L 8.57142857142857 13.0681818181818  C 8.57142857142857 12.9266098484848  8.62444196428572 12.8040956439394  8.73046875 12.7006392045455  C 8.83649553571429 12.5971827651515  8.96205357142857 12.5454545454545  9.10714285714286 12.5454545454545  L 25.1785714285714 12.5454545454545  C 25.3236607142857 12.5454545454545  25.44921875 12.5971827651515  25.5552455357143 12.7006392045455  Z M 25.5552455357143 8.51882102272727  C 25.6612723214286 8.62227746212121  25.7142857142857 8.74479166666666  25.7142857142857 8.88636363636364  L 25.7142857142857 9.93181818181818  C 25.7142857142857 10.0733901515152  25.6612723214286 10.1959043560606  25.5552455357143 10.2993607954545  C 25.44921875 10.4028172348485  25.3236607142857 10.4545454545455  25.1785714285714 10.4545454545455  L 9.10714285714286 10.4545454545455  C 8.96205357142857 10.4545454545455  8.83649553571429 10.4028172348485  8.73046875 10.2993607954545  C 8.62444196428572 10.1959043560606  8.57142857142857 10.0733901515152  8.57142857142857 9.93181818181818  L 8.57142857142857 8.88636363636364  C 8.57142857142857 8.74479166666666  8.62444196428572 8.62227746212121  8.73046875 8.51882102272727  C 8.83649553571429 8.41536458333333  8.96205357142857 8.36363636363636  9.10714285714286 8.36363636363636  L 25.1785714285714 8.36363636363636  C 25.3236607142857 8.36363636363636  25.44921875 8.41536458333333  25.5552455357143 8.51882102272727  Z M 27.6981026785714 20.75390625  C 27.8041294642857 20.6504498106061  27.8571428571429 20.5279356060606  27.8571428571429 20.3863636363636  L 27.8571428571429 6.79545454545455  C 27.8571428571429 6.65388257575757  27.8041294642857 6.53136837121212  27.6981026785714 6.42791193181818  C 27.5920758928571 6.32445549242424  27.4665178571429 6.27272727272727  27.3214285714286 6.27272727272727  L 2.67857142857143 6.27272727272727  C 2.53348214285714 6.27272727272727  2.40792410714286 6.32445549242424  2.30189732142857 6.42791193181818  C 2.19587053571429 6.53136837121212  2.14285714285714 6.65388257575757  2.14285714285714 6.79545454545455  L 2.14285714285714 20.3863636363636  C 2.14285714285714 20.5279356060606  2.19587053571429 20.6504498106061  2.30189732142857 20.75390625  C 2.40792410714286 20.8573626893939  2.53348214285714 20.9090909090909  2.67857142857143 21  L 27.3214285714286 21  C 27.4665178571429 20.9090909090909  27.5920758928571 20.8573626893939  27.6981026785714 20.75390625  Z M 29.2131696428571 0.767755681818181  C 29.7377232142857 1.2795928030303  30 1.89488636363636  30 2.61363636363636  L 30 20.3863636363636  C 30 21.1051136363636  29.7377232142857 21.7204071969697  29.2131696428571 22.2322443181818  C 28.6886160714286 22.7440814393939  28.0580357142857 23  27.3214285714286 23  L 2.67857142857143 23  C 1.94196428571429 23  1.31138392857143 22.7440814393939  0.786830357142857 22.2322443181818  C 0.262276785714286 21.7204071969697  0 21.1051136363636  0 20.3863636363636  L 0 2.61363636363636  C 0 1.89488636363636  0.262276785714286 1.2795928030303  0.786830357142857 0.767755681818181  C 1.31138392857143 0.255918560606058  1.94196428571429 0  2.67857142857143 0  L 27.3214285714286 0  C 28.0580357142857 0  28.6886160714286 0.255918560606058  29.2131696428571 0.767755681818181  Z " fill-rule="nonzero" fill="#2cbdbe" stroke="none" transform="matrix(1 0 0 1 85 734 )" />
  </g>
</svg>