<?xml version="1.0" encoding="utf-8"?>
<svg version="1.1" xmlns:xlink="http://www.w3.org/1999/xlink" width="326px" height="129px" xmlns="http://www.w3.org/2000/svg">
  <defs>
    <filter x="236px" y="935px" width="326px" height="129px" filterUnits="userSpaceOnUse" id="filter74">
      <feOffset dx="5" dy="5" in="SourceAlpha" result="shadowOffsetInner" />
      <feGaussianBlur stdDeviation="2.5" in="shadowOffsetInner" result="shadowGaussian" />
      <feComposite in2="shadowGaussian" operator="atop" in="SourceAlpha" result="shadowComposite" />
      <feColorMatrix type="matrix" values="0 0 0 0 0.250980392156863  0 0 0 0 0.619607843137255  0 0 0 0 1  0 0 0 0.0980392156862745 0  " in="shadowComposite" />
    </filter>
    <g id="widget75">
      <path d="M 238 940  A 3 3 0 0 1 241 937 L 547 937  A 3 3 0 0 1 550 940 L 550 1049  A 3 3 0 0 1 547 1052 L 241 1052  A 3 3 0 0 1 238 1049 L 238 940  Z " fill-rule="nonzero" fill="#ffffff" stroke="none" />
      <path d="M 237 940  A 4 4 0 0 1 241 936 L 547 936  A 4 4 0 0 1 551 940 L 551 1049  A 4 4 0 0 1 547 1053 L 241 1053  A 4 4 0 0 1 237 1049 L 237 940  Z " stroke-width="2" stroke="#02a7f0" fill="none" stroke-opacity="0.149019607843137" />
    </g>
  </defs>
  <g transform="matrix(1 0 0 1 -236 -935 )">
    <use xlink:href="#widget75" filter="url(#filter74)" />
    <use xlink:href="#widget75" />
  </g>
</svg>