<?xml version="1.0" encoding="utf-8"?>
<svg version="1.1" xmlns:xlink="http://www.w3.org/1999/xlink" width="164px" height="158px" xmlns="http://www.w3.org/2000/svg">
  <g transform="matrix(1 0 0 1 -561 260 )">
    <path d="M 30 115  L 45 115  L 45 129  L 30 129  L 30 115  Z M 30 29  L 45 29  L 45 43  L 30 43  L 30 29  Z M 119 29  L 134 29  L 134 43  L 119 43  L 119 29  Z M 15 100  L 15 143  L 60 143  L 60 100  L 15 100  Z M 15 15  L 15 58  L 60 58  L 60 15  L 15 15  Z M 104 15  L 104 58  L 149 58  L 149 15  L 104 15  Z M 0 86  L 75 86  L 75 158  L 0 158  L 0 86  Z M 119 143  L 134 143  L 134 158  L 119 158  L 119 143  Z M 149 143  L 164 143  L 164 158  L 149 158  L 149 143  Z M 149 86  L 164 86  L 164 129  L 119 129  L 119 115  L 104 115  L 104 158  L 89 158  L 89 86  L 134 86  L 134 100  L 149 100  L 149 86  Z M 0 0  L 75 0  L 75 72  L 0 72  L 0 0  Z M 89 0  L 164 0  L 164 72  L 89 72  L 89 0  Z " fill-rule="nonzero" fill="#000000" stroke="none" transform="matrix(1 0 0 1 561 -260 )" />
  </g>
</svg>