<?xml version="1.0" encoding="utf-8"?>
<svg version="1.1" xmlns:xlink="http://www.w3.org/1999/xlink" width="443px" height="322px" xmlns="http://www.w3.org/2000/svg">
  <defs>
    <filter x="515px" y="-337px" width="443px" height="322px" filterUnits="userSpaceOnUse" id="filter82">
      <feOffset dx="5" dy="5" in="SourceAlpha" result="shadowOffsetInner" />
      <feGaussianBlur stdDeviation="2.5" in="shadowOffsetInner" result="shadowGaussian" />
      <feComposite in2="shadowGaussian" operator="atop" in="SourceAlpha" result="shadowComposite" />
      <feColorMatrix type="matrix" values="0 0 0 0 0.250980392156863  0 0 0 0 0.619607843137255  0 0 0 0 1  0 0 0 0.0980392156862745 0  " in="shadowComposite" />
    </filter>
    <g id="widget83">
      <path d="M 517 -332  A 3 3 0 0 1 520 -335 L 943 -335  A 3 3 0 0 1 946 -332 L 946 -30  A 3 3 0 0 1 943 -27 L 520 -27  A 3 3 0 0 1 517 -30 L 517 -332  Z " fill-rule="nonzero" fill="#ffffff" stroke="none" />
      <path d="M 516 -332  A 4 4 0 0 1 520 -336 L 943 -336  A 4 4 0 0 1 947 -332 L 947 -30  A 4 4 0 0 1 943 -26 L 520 -26  A 4 4 0 0 1 516 -30 L 516 -332  Z " stroke-width="2" stroke="#02a7f0" fill="none" stroke-opacity="0.149019607843137" />
    </g>
  </defs>
  <g transform="matrix(1 0 0 1 -515 337 )">
    <use xlink:href="#widget83" filter="url(#filter82)" />
    <use xlink:href="#widget83" />
  </g>
</svg>