<?xml version="1.0" encoding="utf-8"?>
<svg version="1.1" xmlns:xlink="http://www.w3.org/1999/xlink" width="310px" height="129px" xmlns="http://www.w3.org/2000/svg">
  <defs>
    <filter x="952px" y="935px" width="310px" height="129px" filterUnits="userSpaceOnUse" id="filter80">
      <feOffset dx="5" dy="5" in="SourceAlpha" result="shadowOffsetInner" />
      <feGaussianBlur stdDeviation="2.5" in="shadowOffsetInner" result="shadowGaussian" />
      <feComposite in2="shadowGaussian" operator="atop" in="SourceAlpha" result="shadowComposite" />
      <feColorMatrix type="matrix" values="0 0 0 0 0.250980392156863  0 0 0 0 0.619607843137255  0 0 0 0 1  0 0 0 0.0980392156862745 0  " in="shadowComposite" />
    </filter>
    <g id="widget81">
      <path d="M 954 940  A 3 3 0 0 1 957 937 L 1247 937  A 3 3 0 0 1 1250 940 L 1250 1049  A 3 3 0 0 1 1247 1052 L 957 1052  A 3 3 0 0 1 954 1049 L 954 940  Z " fill-rule="nonzero" fill="#ffffff" stroke="none" />
      <path d="M 953 940  A 4 4 0 0 1 957 936 L 1247 936  A 4 4 0 0 1 1251 940 L 1251 1049  A 4 4 0 0 1 1247 1053 L 957 1053  A 4 4 0 0 1 953 1049 L 953 940  Z " stroke-width="2" stroke="#02a7f0" fill="none" stroke-opacity="0.149019607843137" />
    </g>
  </defs>
  <g transform="matrix(1 0 0 1 -952 -935 )">
    <use xlink:href="#widget81" filter="url(#filter80)" />
    <use xlink:href="#widget81" />
  </g>
</svg>