<?xml version="1.0" encoding="utf-8"?>
<svg version="1.1" xmlns:xlink="http://www.w3.org/1999/xlink" width="443px" height="346px" xmlns="http://www.w3.org/2000/svg">
  <defs>
    <filter x="1184px" y="1219px" width="443px" height="346px" filterUnits="userSpaceOnUse" id="filter362">
      <feOffset dx="5" dy="5" in="SourceAlpha" result="shadowOffsetInner" />
      <feGaussianBlur stdDeviation="2.5" in="shadowOffsetInner" result="shadowGaussian" />
      <feComposite in2="shadowGaussian" operator="atop" in="SourceAlpha" result="shadowComposite" />
      <feColorMatrix type="matrix" values="0 0 0 0 0.250980392156863  0 0 0 0 0.619607843137255  0 0 0 0 1  0 0 0 0.0980392156862745 0  " in="shadowComposite" />
    </filter>
    <g id="widget363">
      <path d="M 1186 1224  A 3 3 0 0 1 1189 1221 L 1612 1221  A 3 3 0 0 1 1615 1224 L 1615 1550  A 3 3 0 0 1 1612 1553 L 1189 1553  A 3 3 0 0 1 1186 1550 L 1186 1224  Z " fill-rule="nonzero" fill="#ffffff" stroke="none" />
      <path d="M 1185 1224  A 4 4 0 0 1 1189 1220 L 1612 1220  A 4 4 0 0 1 1616 1224 L 1616 1550  A 4 4 0 0 1 1612 1554 L 1189 1554  A 4 4 0 0 1 1185 1550 L 1185 1224  Z " stroke-width="2" stroke="#02a7f0" fill="none" stroke-opacity="0.149019607843137" />
    </g>
  </defs>
  <g transform="matrix(1 0 0 1 -1184 -1219 )">
    <use xlink:href="#widget363" filter="url(#filter362)" />
    <use xlink:href="#widget363" />
  </g>
</svg>