<?xml version="1.0" encoding="utf-8"?>
<svg version="1.1" xmlns:xlink="http://www.w3.org/1999/xlink" width="519px" height="240px" viewBox="1741 220  519 240" xmlns="http://www.w3.org/2000/svg">
  <defs>
    <linearGradient gradientUnits="userSpaceOnUse" x1="2000.5" y1="220" x2="2000.5" y2="460" id="LinearGradient327">
      <stop id="Stop328" stop-color="#ffffff" offset="0" />
      <stop id="Stop329" stop-color="#f2f2f2" offset="0" />
      <stop id="Stop330" stop-color="#e4e4e4" offset="1" />
      <stop id="Stop331" stop-color="#ffffff" offset="1" />
    </linearGradient>
  </defs>
  <path d="M 1741.5 221  A 0.5 0.5 0 0 1 1742 220.5 L 2259 220.5  A 0.5 0.5 0 0 1 2259.5 221 L 2259.5 459  A 0.5 0.5 0 0 1 2259 459.5 L 1742 459.5  A 0.5 0.5 0 0 1 1741.5 459 L 1741.5 221  Z " fill-rule="nonzero" fill="#f0f0f0" stroke="none" />
  <path d="M 1741.5 221  A 0.5 0.5 0 0 1 1742 220.5 L 2259 220.5  A 0.5 0.5 0 0 1 2259.5 221 L 2259.5 459  A 0.5 0.5 0 0 1 2259 459.5 L 1742 459.5  A 0.5 0.5 0 0 1 1741.5 459 L 1741.5 221  Z " stroke-width="1" stroke="url(#LinearGradient327)" fill="none" />
</svg>