<?xml version="1.0" encoding="utf-8"?>
<svg version="1.1" xmlns:xlink="http://www.w3.org/1999/xlink" width="16px" height="16px" viewBox="1870 524  16 16" xmlns="http://www.w3.org/2000/svg">
  <path d="M 1878 524  C 1882.48 524  1886 527.52  1886 532  C 1886 536.48  1882.48 540  1878 540  C 1873.52 540  1870 536.48  1870 532  C 1870 527.52  1873.52 524  1878 524  Z " fill-rule="nonzero" fill="#ffffff" stroke="none" />
  <path d="M 1878 524.5  C 1882.2 524.5  1885.5 527.8  1885.5 532  C 1885.5 536.2  1882.2 539.5  1878 539.5  C 1873.8 539.5  1870.5 536.2  1870.5 532  C 1870.5 527.8  1873.8 524.5  1878 524.5  Z " stroke-width="1" stroke="#797979" fill="none" />
  <path d="M 1878 536  C 1875.76 536  1874 534.24  1874 532  C 1874 529.76  1875.76 528  1878 528  C 1880.24 528  1882 529.76  1882 532  C 1882 534.24  1880.24 536  1878 536  " fill-rule="nonzero" fill="#797979" stroke="none" />
</svg>