<?xml version="1.0" encoding="utf-8"?>
<svg version="1.1" xmlns:xlink="http://www.w3.org/1999/xlink" width="16px" height="16px" viewBox="1750 524  16 16" xmlns="http://www.w3.org/2000/svg">
  <path d="M 1758 524  C 1762.48 524  1766 527.52  1766 532  C 1766 536.48  1762.48 540  1758 540  C 1753.52 540  1750 536.48  1750 532  C 1750 527.52  1753.52 524  1758 524  Z " fill-rule="nonzero" fill="#ffffff" stroke="none" />
  <path d="M 1758 524.5  C 1762.2 524.5  1765.5 527.8  1765.5 532  C 1765.5 536.2  1762.2 539.5  1758 539.5  C 1753.8 539.5  1750.5 536.2  1750.5 532  C 1750.5 527.8  1753.8 524.5  1758 524.5  Z " stroke-width="1" stroke="#797979" fill="none" />
  <path d="M 1758 536  C 1755.76 536  1754 534.24  1754 532  C 1754 529.76  1755.76 528  1758 528  C 1760.24 528  1762 529.76  1762 532  C 1762 534.24  1760.24 536  1758 536  " fill-rule="nonzero" fill="#797979" stroke="none" />
</svg>