<?xml version="1.0" encoding="utf-8"?>
<svg version="1.1" xmlns:xlink="http://www.w3.org/1999/xlink" width="943px" height="85px" xmlns="http://www.w3.org/2000/svg">
  <defs>
    <filter x="360px" y="385px" width="943px" height="85px" filterUnits="userSpaceOnUse" id="filter232">
      <feOffset dx="5" dy="5" in="SourceAlpha" result="shadowOffsetInner" />
      <feGaussianBlur stdDeviation="2.5" in="shadowOffsetInner" result="shadowGaussian" />
      <feComposite in2="shadowGaussian" operator="atop" in="SourceAlpha" result="shadowComposite" />
      <feColorMatrix type="matrix" values="0 0 0 0 0.250980392156863  0 0 0 0 0.619607843137255  0 0 0 0 1  0 0 0 0.0980392156862745 0  " in="shadowComposite" />
    </filter>
    <g id="widget233">
      <path d="M 362 390  A 3 3 0 0 1 365 387 L 1288 387  A 3 3 0 0 1 1291 390 L 1291 455  A 3 3 0 0 1 1288 458 L 365 458  A 3 3 0 0 1 362 455 L 362 390  Z " fill-rule="nonzero" fill="#ffffff" stroke="none" fill-opacity="0.149019607843137" />
      <path d="M 361 390  A 4 4 0 0 1 365 386 L 1288 386  A 4 4 0 0 1 1292 390 L 1292 455  A 4 4 0 0 1 1288 459 L 365 459  A 4 4 0 0 1 361 455 L 361 390  Z " stroke-width="2" stroke="#02a7f0" fill="none" stroke-opacity="0.149019607843137" />
    </g>
  </defs>
  <g transform="matrix(1 0 0 1 -360 -385 )">
    <use xlink:href="#widget233" filter="url(#filter232)" />
    <use xlink:href="#widget233" />
  </g>
</svg>