<?xml version="1.0" encoding="utf-8"?>
<svg version="1.1" xmlns:xlink="http://www.w3.org/1999/xlink" width="40px" height="40px" xmlns="http://www.w3.org/2000/svg">
  <g transform="matrix(1 0 0 1 -754 -77 )">
    <path d="M 774 77  C 785.2 77  794 85.8  794 97  C 794 108.2  785.2 117  774 117  C 762.8 117  754 108.2  754 97  C 754 85.8  762.8 77  774 77  Z " fill-rule="nonzero" fill="#ffffff" stroke="none" />
    <path d="M 774 77.5  C 784.92 77.5  793.5 86.08  793.5 97  C 793.5 107.92  784.92 116.5  774 116.5  C 763.08 116.5  754.5 107.92  754.5 97  C 754.5 86.08  763.08 77.5  774 77.5  Z " stroke-width="1" stroke="#aaaaaa" fill="none" />
  </g>
</svg>