<?xml version="1.0" encoding="utf-8"?>
<svg version="1.1" xmlns:xlink="http://www.w3.org/1999/xlink" width="14px" height="14px" xmlns="http://www.w3.org/2000/svg">
  <g transform="matrix(1 0 0 1 -697 -328 )">
    <path d="M 704 328  C 707.92 328  711 331.08  711 335  C 711 338.92  707.92 342  704 342  C 700.08 342  697 338.92  697 335  C 697 331.08  700.08 328  704 328  Z " fill-rule="nonzero" fill="#ffffff" stroke="none" fill-opacity="0" />
    <path d="M 704 328.5  C 707.64 328.5  710.5 331.36  710.5 335  C 710.5 338.64  707.64 341.5  704 341.5  C 700.36 341.5  697.5 338.64  697.5 335  C 697.5 331.36  700.36 328.5  704 328.5  Z " stroke-width="1" stroke="#d9d9d9" fill="none" />
  </g>
</svg>