<?xml version="1.0" encoding="utf-8"?>
<svg version="1.1" xmlns:xlink="http://www.w3.org/1999/xlink" width="14px" height="14px" xmlns="http://www.w3.org/2000/svg">
  <g transform="matrix(1 0 0 1 -592 -328 )">
    <path d="M 599 328  C 602.92 328  606 331.08  606 335  C 606 338.92  602.92 342  599 342  C 595.08 342  592 338.92  592 335  C 592 331.08  595.08 328  599 328  Z " fill-rule="nonzero" fill="#ffffff" stroke="none" fill-opacity="0" />
    <path d="M 599 328.5  C 602.64 328.5  605.5 331.36  605.5 335  C 605.5 338.64  602.64 341.5  599 341.5  C 595.36 341.5  592.5 338.64  592.5 335  C 592.5 331.36  595.36 328.5  599 328.5  Z " stroke-width="1" stroke="#1890ff" fill="none" />
  </g>
</svg>