<?xml version="1.0" encoding="utf-8"?>
<svg version="1.1" xmlns:xlink="http://www.w3.org/1999/xlink" width="220px" height="30px" viewBox="1740 95  220 30" xmlns="http://www.w3.org/2000/svg">
  <path d="M 1741 97  A 1 1 0 0 1 1742 96 L 1958 96  A 1 1 0 0 1 1959 97 L 1959 123  A 1 1 0 0 1 1958 124 L 1742 124  A 1 1 0 0 1 1741 123 L 1741 97  Z " fill-rule="nonzero" fill="#f0f0f0" stroke="none" />
  <path d="M 1740.5 97  A 1.5 1.5 0 0 1 1742 95.5 L 1958 95.5  A 1.5 1.5 0 0 1 1959.5 97 L 1959.5 123  A 1.5 1.5 0 0 1 1958 124.5 L 1742 124.5  A 1.5 1.5 0 0 1 1740.5 123 L 1740.5 97  Z " stroke-width="1" stroke="#000000" fill="none" stroke-opacity="0.0862745098039216" />
</svg>