<?xml version="1.0" encoding="utf-8"?>
<svg version="1.1" xmlns:xlink="http://www.w3.org/1999/xlink" width="550px" height="170px" viewBox="1741 320  550 170" xmlns="http://www.w3.org/2000/svg">
  <defs>
    <linearGradient gradientUnits="userSpaceOnUse" x1="2016" y1="320" x2="2016" y2="490" id="LinearGradient337">
      <stop id="Stop338" stop-color="#ffffff" offset="0" />
      <stop id="Stop339" stop-color="#f2f2f2" offset="0" />
      <stop id="Stop340" stop-color="#e4e4e4" offset="1" />
      <stop id="Stop341" stop-color="#ffffff" offset="1" />
    </linearGradient>
  </defs>
  <path d="M 1741.5 321  A 0.5 0.5 0 0 1 1742 320.5 L 2290 320.5  A 0.5 0.5 0 0 1 2290.5 321 L 2290.5 489  A 0.5 0.5 0 0 1 2290 489.5 L 1742 489.5  A 0.5 0.5 0 0 1 1741.5 489 L 1741.5 321  Z " fill-rule="nonzero" fill="#f0f0f0" stroke="none" />
  <path d="M 1741.5 321  A 0.5 0.5 0 0 1 1742 320.5 L 2290 320.5  A 0.5 0.5 0 0 1 2290.5 321 L 2290.5 489  A 0.5 0.5 0 0 1 2290 489.5 L 1742 489.5  A 0.5 0.5 0 0 1 1741.5 489 L 1741.5 321  Z " stroke-width="1" stroke="url(#LinearGradient337)" fill="none" />
</svg>