<?xml version="1.0" encoding="utf-8"?>
<svg version="1.1" xmlns:xlink="http://www.w3.org/1999/xlink" width="550px" height="30px" viewBox="1740 149  550 30" xmlns="http://www.w3.org/2000/svg">
  <path d="M 1741 151  A 1 1 0 0 1 1742 150 L 2288 150  A 1 1 0 0 1 2289 151 L 2289 177  A 1 1 0 0 1 2288 178 L 1742 178  A 1 1 0 0 1 1741 177 L 1741 151  Z " fill-rule="nonzero" fill="#ffffff" stroke="none" />
  <path d="M 1740.5 151  A 1.5 1.5 0 0 1 1742 149.5 L 2288 149.5  A 1.5 1.5 0 0 1 2289.5 151 L 2289.5 177  A 1.5 1.5 0 0 1 2288 178.5 L 1742 178.5  A 1.5 1.5 0 0 1 1740.5 177 L 1740.5 151  Z " stroke-width="1" stroke="#000000" fill="none" stroke-opacity="0.0862745098039216" />
</svg>