<?xml version="1.0" encoding="utf-8"?>
<svg version="1.1" xmlns:xlink="http://www.w3.org/1999/xlink" width="12px" height="12px" viewBox="1839 536  12 12" xmlns="http://www.w3.org/2000/svg">
  <path d="M 1845 536  C 1848.36 536  1851 538.64  1851 542  C 1851 545.36  1848.36 548  1845 548  C 1841.64 548  1839 545.36  1839 542  C 1839 538.64  1841.64 536  1845 536  Z " fill-rule="nonzero" fill="#f0f0f0" stroke="none" />
  <path d="M 1845 536.5  C 1848.08 536.5  1850.5 538.92  1850.5 542  C 1850.5 545.08  1848.08 547.5  1845 547.5  C 1841.92 547.5  1839.5 545.08  1839.5 542  C 1839.5 538.92  1841.92 536.5  1845 536.5  Z " stroke-width="1" stroke="#797979" fill="none" />
  <path d="M 1845 545  C 1843.32 545  1842 543.68  1842 542  C 1842 540.32  1843.32 539  1845 539  C 1846.68 539  1848 540.32  1848 542  C 1848 543.68  1846.68 545  1845 545  " fill-rule="nonzero" fill="#797979" stroke="none" />
</svg>