<?xml version="1.0" encoding="utf-8"?>
<svg version="1.1" xmlns:xlink="http://www.w3.org/1999/xlink" width="12px" height="12px" viewBox="1741 536  12 12" xmlns="http://www.w3.org/2000/svg">
  <path d="M 1747 536  C 1750.36 536  1753 538.64  1753 542  C 1753 545.36  1750.36 548  1747 548  C 1743.64 548  1741 545.36  1741 542  C 1741 538.64  1743.64 536  1747 536  Z " fill-rule="nonzero" fill="#ffffff" stroke="none" />
  <path d="M 1747 536.5  C 1750.08 536.5  1752.5 538.92  1752.5 542  C 1752.5 545.08  1750.08 547.5  1747 547.5  C 1743.92 547.5  1741.5 545.08  1741.5 542  C 1741.5 538.92  1743.92 536.5  1747 536.5  Z " stroke-width="1" stroke="#797979" fill="none" />
  <path d="M 1747 545  C 1745.32 545  1744 543.68  1744 542  C 1744 540.32  1745.32 539  1747 539  C 1748.68 539  1750 540.32  1750 542  C 1750 543.68  1748.68 545  1747 545  " fill-rule="nonzero" fill="#797979" stroke="none" />
</svg>