<?xml version="1.0" encoding="utf-8"?>
<svg version="1.1" xmlns:xlink="http://www.w3.org/1999/xlink" width="326px" height="230px" xmlns="http://www.w3.org/2000/svg">
  <defs>
    <filter x="37px" y="951px" width="326px" height="230px" filterUnits="userSpaceOnUse" id="filter254">
      <feOffset dx="5" dy="5" in="SourceAlpha" result="shadowOffsetInner" />
      <feGaussianBlur stdDeviation="2.5" in="shadowOffsetInner" result="shadowGaussian" />
      <feComposite in2="shadowGaussian" operator="atop" in="SourceAlpha" result="shadowComposite" />
      <feColorMatrix type="matrix" values="0 0 0 0 0.250980392156863  0 0 0 0 0.619607843137255  0 0 0 0 1  0 0 0 0.0980392156862745 0  " in="shadowComposite" />
    </filter>
    <g id="widget255">
      <path d="M 39 956  A 3 3 0 0 1 42 953 L 348 953  A 3 3 0 0 1 351 956 L 351 1166  A 3 3 0 0 1 348 1169 L 42 1169  A 3 3 0 0 1 39 1166 L 39 956  Z " fill-rule="nonzero" fill="#ffffff" stroke="none" fill-opacity="0.149019607843137" />
      <path d="M 38 956  A 4 4 0 0 1 42 952 L 348 952  A 4 4 0 0 1 352 956 L 352 1166  A 4 4 0 0 1 348 1170 L 42 1170  A 4 4 0 0 1 38 1166 L 38 956  Z " stroke-width="2" stroke="#02a7f0" fill="none" stroke-opacity="0.149019607843137" />
    </g>
  </defs>
  <g transform="matrix(1 0 0 1 -37 -951 )">
    <use xlink:href="#widget255" filter="url(#filter254)" />
    <use xlink:href="#widget255" />
  </g>
</svg>