<?xml version="1.0" encoding="utf-8"?>
<svg version="1.1" xmlns:xlink="http://www.w3.org/1999/xlink" width="530px" height="240px" viewBox="1580 403  530 240" xmlns="http://www.w3.org/2000/svg">
  <defs>
    <linearGradient gradientUnits="userSpaceOnUse" x1="1845" y1="403" x2="1845" y2="643" id="LinearGradient398">
      <stop id="Stop399" stop-color="#ffffff" offset="0" />
      <stop id="Stop400" stop-color="#f2f2f2" offset="0" />
      <stop id="Stop401" stop-color="#e4e4e4" offset="1" />
      <stop id="Stop402" stop-color="#ffffff" offset="1" />
    </linearGradient>
  </defs>
  <path d="M 1580.5 404  A 0.5 0.5 0 0 1 1581 403.5 L 2109 403.5  A 0.5 0.5 0 0 1 2109.5 404 L 2109.5 642  A 0.5 0.5 0 0 1 2109 642.5 L 1581 642.5  A 0.5 0.5 0 0 1 1580.5 642 L 1580.5 404  Z " fill-rule="nonzero" fill="#ffffff" stroke="none" />
  <path d="M 1580.5 404  A 0.5 0.5 0 0 1 1581 403.5 L 2109 403.5  A 0.5 0.5 0 0 1 2109.5 404 L 2109.5 642  A 0.5 0.5 0 0 1 2109 642.5 L 1581 642.5  A 0.5 0.5 0 0 1 1580.5 642 L 1580.5 404  Z " stroke-width="1" stroke="url(#LinearGradient398)" fill="none" />
</svg>